<?xml version="1.0" encoding="UTF-8"?>
<svg width="35px"
    height="35px"
    viewBox="0 0 35 35"
    version="1.1"
    xmlns="http://www.w3.org/2000/svg">
    <title>代币/usdt</title>
    <g
        id="代币/usdt"
        stroke="none"
        stroke-width="1"
        fill="none"
        fill-rule="evenodd">
        <rect
            id="矩形"
            fill="#D8D8D8"
            opacity="0"
            x="0"
            y="0"
            width="35"
            height="35"></rect>
        <circle
            id="椭圆形"
            fill="#F5F9F9"
            cx="17.5"
            cy="17.5"
            r="17.5"></circle>
        <g
            id="USDT"
            fill-rule="nonzero">
            <rect
                id="矩形"
                fill="#000000"
                opacity="0"
                x="0"
                y="0"
                width="35"
                height="35"></rect>
            <path
                d="M34.9686567,17.4939055 C34.9686567,27.1110697 27.1728856,34.9068408 17.5557214,34.9068408 C7.93890549,34.9068408 0.142786055,27.1110697 0.142786055,17.4939055 C0.142786055,7.87691543 7.93890545,0.0809701416 17.5557214,0.0809701416 C27.1728856,0.0809701416 34.9686567,7.87691543 34.9686567,17.4939055"
                id="路径"
                fill="#1BA27A"></path>
            <polygon
                id="路径"
                fill="#FFFFFF"
                points="25.7281343 8.86161691 9.23982585 8.86161691 9.23982585 12.8422139 15.4936816 12.8422139 15.4936816 18.6929602 19.4742786 18.6929602 19.4742786 12.8422139 25.7281343 12.8422139"></polygon>
            <path
                d="M17.5217662,19.3161691 C12.3483831,19.3161691 8.15412934,18.4974129 8.15412934,17.4872886 C8.15412934,16.4773383 12.3482089,15.658408 17.5217662,15.658408 C22.6951493,15.658408 26.8892289,16.4773383 26.8892289,17.4872886 C26.8892289,18.4974129 22.6951493,19.3161691 17.5217662,19.3161691 M28.0400497,17.7921891 C28.0400497,16.4897015 23.3308955,15.4339552 17.5217662,15.4339552 C11.7128109,15.4339552 7.00330846,16.4897015 7.00330846,17.7921891 C7.00330846,18.9391791 10.6549751,19.894801 15.4938557,20.1065423 L15.4938557,28.5054975 L19.4741045,28.5054975 L19.4741045,20.1098507 C24.3502488,19.9047264 28.0400497,18.9450995 28.0400497,17.7921891"
                id="形状"
                fill="#FFFFFF"></path>
        </g>
    </g>
</svg>