<?xml version="1.0" encoding="UTF-8"?>
<svg width="35px" height="35px" viewBox="0 0 35 35" version="1.1" xmlns="http://www.w3.org/2000/svg" xmlns:xlink="http://www.w3.org/1999/xlink">
    <title>图标/btc-选中</title>
    <g id="图标/btc-选中" stroke="none" stroke-width="1" fill="none" fill-rule="evenodd">
        <rect id="矩形" fill="#D8D8D8" opacity="0" x="0" y="0" width="35" height="35"></rect>
        <circle id="椭圆形" fill="#FC9D27" cx="17.5" cy="17.5" r="17.5"></circle>
        <g id="BTC" transform="translate(12.000000, 9.000000)" fill="#FFFFFF" fill-rule="nonzero">
            <path d="M11.0532227,5.82822266 C11.1721484,7.03089844 10.739375,7.88330078 9.75472656,8.38550781 C10.5278125,8.57050781 11.1060547,8.91082031 11.4892773,9.40646484 C11.8725,9.90203125 12.02125,10.6091406 11.935293,11.5276172 C11.8890234,11.9967969 11.7816602,12.4097656 11.6131836,12.7666016 C11.444707,13.1234375 11.2315625,13.4175 10.9738281,13.64875 C10.7160938,13.8800195 10.3956641,14.0733594 10.0123633,14.2285938 C9.62914063,14.3839258 9.22763672,14.4978711 8.80808594,14.5705078 C8.38845703,14.6431445 7.90773438,14.6927148 7.36589844,14.7191797 L7.36589844,17.2466602 L5.83943359,17.2466602 L5.83943359,14.7588086 C5.31083984,14.7588086 4.90773438,14.7555273 4.63019531,14.7488672 L4.63019531,17.2466602 L3.10390625,17.2466602 L3.10390625,14.7191211 C2.98498047,14.7191211 2.8065625,14.7174414 2.56865234,14.7141406 C2.33072266,14.7108594 2.14902344,14.7091602 2.02353516,14.7091602 L0.0411132813,14.7091602 L0.348398438,12.895293 L1.44867188,12.895293 C1.77904297,12.895293 1.97070313,12.7268164 2.02353516,12.3897852 L2.02353516,5.55070313 C1.93765625,5.10132813 1.64361328,4.87671875 1.14138672,4.87671875 L0.0411132813,4.87671875 L0.0411132813,3.25113281 L2.14246094,3.26107422 C2.56537109,3.26107422 2.88589844,3.25779297 3.10392578,3.25113281 L3.10392578,0.753339844 L4.63039063,0.753339844 L4.63039063,3.20158203 C5.17222656,3.18833984 5.57533203,3.18177734 5.83962891,3.18177734 L5.83962891,0.753339844 L7.36609375,0.753339844 L7.36609375,3.25113281 C7.888125,3.29740234 8.35064453,3.37173828 8.75375,3.47414063 C9.15685547,3.57654297 9.53021484,3.72521484 9.87382813,3.92013672 C10.2174414,4.11505859 10.49,4.37279297 10.6916016,4.69322266 C10.8930078,5.01375 11.0136133,5.39208984 11.0532227,5.82822266 Z M8.92212891,11.2301172 C8.92212891,10.9921875 8.87257813,10.7807422 8.77345703,10.5957422 C8.67433594,10.4107422 8.55205078,10.2587109 8.40675781,10.1397852 C8.26136719,10.0208594 8.07140625,9.92005859 7.83685547,9.83748047 C7.60230469,9.75488281 7.38587891,9.69378906 7.18765625,9.65408203 C6.98943359,9.61447266 6.74494141,9.58472656 6.45417969,9.56492188 C6.16341797,9.54511719 5.93542969,9.53517578 5.77025391,9.53517578 C5.60505859,9.53517578 5.39191406,9.53845703 5.13091797,9.54511719 C4.86990234,9.55167969 4.71296875,9.55505859 4.66013672,9.55505859 L4.66013672,12.9052539 C4.71298828,12.9052539 4.83527344,12.9069336 5.02683594,12.9102344 C5.21849609,12.9135156 5.37701172,12.9152148 5.50259766,12.9152148 C5.62818359,12.9152148 5.80322266,12.9102344 6.02791016,12.9003906 C6.25259766,12.8905273 6.44585938,12.8773047 6.60775391,12.8607813 C6.76964844,12.8442578 6.95792969,12.8161914 7.17277344,12.7765039 C7.38751953,12.7368945 7.57091797,12.690625 7.72287109,12.6376953 C7.87482422,12.5848438 8.03175781,12.5154883 8.19365234,12.4295313 C8.35554688,12.3436523 8.48601563,12.2445313 8.58513672,12.1321875 C8.68425781,12.0198438 8.76523438,11.8876953 8.82794922,11.7357422 C8.89060547,11.58375 8.92212891,11.4151953 8.92212891,11.2301172 L8.92212891,11.2301172 Z M8.21839844,6.51207031 C8.21839844,6.29404297 8.17710938,6.10070313 8.09451172,5.93222656 C8.01191406,5.76375 7.91111328,5.62494141 7.79220703,5.51587891 C7.67328125,5.40681641 7.51466797,5.314375 7.31644531,5.23833984 C7.11822266,5.16232422 6.93652344,5.10787109 6.77132813,5.07474609 C6.60613281,5.04171875 6.40294922,5.01523438 6.16173828,4.99542969 C5.92052734,4.975625 5.72886719,4.96736328 5.586875,4.97064453 C5.44478516,4.97392578 5.26636719,4.97720703 5.05162109,4.98058594 C4.836875,4.98386719 4.70632813,4.98556641 4.66013672,4.98556641 L4.66013672,8.02847656 C4.69318359,8.02847656 4.80720703,8.03015625 5.00205078,8.03345703 C5.19699219,8.03673828 5.350625,8.03673828 5.46296875,8.03345703 C5.5753125,8.03017578 5.74050781,8.02351563 5.95853516,8.01365234 C6.1765625,8.00371094 6.35826172,7.98558594 6.50365234,7.95912109 C6.64904297,7.93265625 6.81919922,7.89632813 7.01414063,7.85005859 C7.20908203,7.80378906 7.36929688,7.74269531 7.49486328,7.66666016 C7.62044922,7.59064453 7.74263672,7.50146484 7.8615625,7.39908203 C7.98048828,7.29667969 8.06972656,7.16941406 8.12914063,7.01746094 C8.18855469,6.86550781 8.21839844,6.69714844 8.21839844,6.51207031 L8.21839844,6.51207031 Z" id="形状"></path>
        </g>
    </g>
</svg>