<?xml version="1.0" encoding="UTF-8"?>
<svg width="24px" height="24px" viewBox="0 0 24 24" version="1.1" xmlns="http://www.w3.org/2000/svg" xmlns:xlink="http://www.w3.org/1999/xlink">
    <title>添加-3</title>
    <g id="添加-3" stroke="none" stroke-width="1" fill="none" fill-rule="evenodd">
        <rect id="矩形" fill="#D8D8D8" opacity="0" x="0" y="0" width="24" height="24"></rect>
        <g id="编组" transform="translate(0.500000, 2.400000)" stroke="#333333" stroke-width="1.6">
            <rect id="矩形" x="0.8" y="0.8" width="8.94166667" height="1" rx="0.5"></rect>
            <rect id="矩形备份" x="0.8" y="6.55" width="7.025" height="1" rx="0.5"></rect>
            <rect id="矩形备份-2" x="0.8" y="12.3" width="7.98333333" height="1" rx="0.5"></rect>
            <rect id="矩形备份-3" x="0.8" y="18.05" width="17.5666667" height="1" rx="0.5"></rect>
            <path d="M19.9201791,14.2977268 L19.9599709,14.305238 L21.9229384,18.0556295 C21.9427881,18.0945866 21.944968,18.1379013 21.9324464,18.176439 C21.9199247,18.2149768 21.8927013,18.2487378 21.8537442,18.2685874 C21.8147872,18.288437 21.7714725,18.290617 21.7329347,18.2780953 C21.6943969,18.2655736 21.660636,18.2383503 21.6407864,18.1993932 L21.6407864,18.1993932 L19.7699672,14.5277038 C19.7501176,14.4887467 19.7479376,14.4454321 19.7604593,14.4068943 C19.772981,14.3683565 19.8002043,14.3345956 19.8391614,14.3147459 C19.8781185,14.2948963 19.9214331,14.2927163 19.9599709,14.305238 Z M16.2916667,0.8 C17.9232079,0.8 19.4002912,1.46131273 20.4694892,2.53051077 C21.5386873,3.5997088 22.2,5.07679213 22.2,6.70833333 C22.2,8.33987453 21.5386873,9.81695787 20.4694892,10.8861559 C19.4002912,11.9553539 17.9232079,12.6166667 16.2916667,12.6166667 C14.6601255,12.6166667 13.1830421,11.9553539 12.1138441,10.8861559 C11.0446461,9.81695787 10.3833333,8.33987453 10.3833333,6.70833333 C10.3833333,5.07679213 11.0446461,3.5997088 12.1138441,2.53051077 C13.1830421,1.46131273 14.6601255,0.8 16.2916667,0.8 Z" id="形状结合"></path>
            <path d="M16.1797081,4.20054143 C16.3353892,4.15416667 16.3749725,4.17188873 16.4036252,4.20054143 C16.4322779,4.22919412 16.45,4.26877746 16.45,4.31222158 L16.45,4.31222158 L16.4492217,6.54870311 L18.6875,6.55 C18.7312225,6.55 18.7708059,6.56772206 18.7994586,6.59637476 C18.8281113,6.62502746 18.8458333,6.66461079 18.8458333,6.70833333 C18.8458333,6.75205588 18.8281113,6.79163921 18.7994586,6.82029191 C18.7708059,6.8489446 18.7312225,6.86666667 18.6877782,6.86666672 L18.6877782,6.86666672 L16.4492217,6.86588836 L16.45,9.10416667 C16.45,9.14788921 16.4322779,9.18747254 16.4036252,9.21612524 C16.3749725,9.24477794 16.3353892,9.2625 16.2916667,9.2625 C16.2479441,9.2625 16.2083608,9.24477794 16.1797081,9.21612524 C16.1510554,9.18747254 16.1333333,9.14788921 16.1333332,9.10370306 L16.1333332,9.10370306 L16.1320364,6.86588833 L13.8958333,6.86666667 C13.8521108,6.86666667 13.8125275,6.8489446 13.7838748,6.82029191 C13.7552221,6.79163921 13.7375,6.75205588 13.7375,6.70833333 C13.7375,6.66461079 13.7552221,6.62502746 13.7838748,6.59637476 C13.8125275,6.56772206 13.8521108,6.55 13.8962974,6.54999987 L13.8962974,6.54999987 L16.1320364,6.54870303 L16.1333333,4.3125 C16.1333333,4.26877746 16.1510554,4.22919412 16.1797081,4.20054143 Z" id="形状结合"></path>
        </g>
    </g>
</svg>