<?xml version="1.0" encoding="UTF-8"?>
<svg width="35px" height="35px" viewBox="0 0 35 35" version="1.1" xmlns="http://www.w3.org/2000/svg" xmlns:xlink="http://www.w3.org/1999/xlink">
    <title>图标/创建钱包</title>
    <g id="图标/创建钱包" stroke="none" stroke-width="1" fill="none" fill-rule="evenodd">
        <rect id="矩形" fill="#D8D8D8" opacity="0" x="0" y="0" width="35" height="35"></rect>
        <circle id="椭圆形" fill="#3BB7A5" cx="17.5" cy="17.5" r="17.5"></circle>
        <g id="创建钱包" transform="translate(8.000000, 7.000000)" fill="#FFFFFF" fill-rule="nonzero">
            <g id="编组" transform="translate(0.500000, 0.500000)">
                <path d="M5.775,12.2326425 L8.03,12.2326425 L8.03,14.4876425 C8.03,14.8836425 8.349,15.2026425 8.745,15.2026425 C9.141,15.2026425 9.46,14.8836425 9.46,14.4876425 L9.46,12.2326425 L11.715,12.2326425 C12.111,12.2326425 12.43,11.9136425 12.43,11.5176425 C12.43,11.1216425 12.111,10.8026425 11.715,10.8026425 L9.46,10.8026425 L9.46,8.54764249 C9.46,8.15164249 9.141,7.83264249 8.745,7.83264249 C8.349,7.83264249 8.03,8.15164249 8.03,8.54764249 L8.03,10.8026425 L5.775,10.8026425 C5.379,10.8026425 5.06,11.1216425 5.06,11.5176425 C5.06,11.9136425 5.379,12.2326425 5.775,12.2326425 L5.775,12.2326425 Z" id="路径"></path>
                <path d="M16.159849,3.8801922 L15.6060502,3.8801922 L15.6060502,1.03665952 L15.5617463,0.915423636 C15.4399106,0.573758857 15.1851631,0.298222746 14.8418079,0.132901079 C14.5095286,-0.0213991436 14.1440214,-0.0434420326 13.8117421,0.0777938565 L1.28481322,3.80304209 L1.24050932,3.82508497 C1.14082553,3.85814931 1.05221772,3.91325653 0.963609915,3.96836375 C0.398735137,4.16674975 -2.73558953e-13,4.69577909 -2.73558953e-13,5.32400142 L-2.73558953e-13,17.7672122 C-2.73558953e-13,18.5607562 0.64240661,19.2 1.43987689,19.2 L16.159849,19.2 C16.9573193,19.2 17.5998647,18.5607562 17.5998647,17.7672122 L17.5998647,5.31297998 C17.6108019,4.51943598 16.9573193,3.8801922 16.159849,3.8801922 L16.159849,3.8801922 Z M14.1661734,1.4775173 L14.1661734,3.86917075 L6.08071085,3.86917075 L14.1661734,1.4775173 Z M16.159849,17.7672122 L1.42880091,17.7672122 L1.42880091,5.31297998 L16.159849,5.31297998 L16.159849,17.7672122 Z" id="形状"></path>
            </g>
        </g>
    </g>
</svg>