<?xml version="1.0" encoding="UTF-8"?>
<svg width="16px"
    height="16px"
    viewBox="0 0 16 16"
    version="1.1"
    xmlns="http://www.w3.org/2000/svg">
    <title>收款/复制</title>
    <g
        id="收款/复制"
        stroke="none"
        stroke-width="1"
        fill="none"
        fill-rule="evenodd">
        <g
            id="fuzhi"
            fill="#8F95AA">
            <path
                d="M11.7145367,2.257156 L1.50186673,2.257156 C0.672836249,2.258102 0.0010090667,2.88794002 0,3.66515603 L0,14.3660221 C0,15.1426438 0.674033061,15.774022 1.50186673,15.774022 L11.7145367,15.774022 C12.5430275,15.774022 13.2164032,15.1426438 13.2164032,14.3660221 L13.2164032,3.66515603 C13.2164032,2.88915005 12.5430275,2.257156 11.7145367,2.257156 Z M12.0149333,14.3660221 C12.0149333,14.5208801 11.8797181,14.647644 11.7145364,14.647644 L1.50186667,14.647644 C1.33595733,14.647644 1.20146987,14.5215622 1.20146987,14.3660221 L1.20146987,3.66515599 C1.20146987,3.509704 1.33595733,3.383644 1.50186667,3.383644 L11.7145364,3.383644 C11.8804696,3.383644 12.0149333,3.509704 12.0149333,3.66515599 L12.0149333,14.3660221 Z"
                id="Fill-1"></path>
            <path
                d="M14.1175934,0.0044 L3.90480642,0.0044 C3.5730816,0.0044 3.30413013,0.256541994 3.30413013,0.567644004 C3.30413013,0.878635958 3.5730816,1.13077803 3.90480642,1.13077803 L14.1175934,1.13077803 C14.2834091,1.13077803 14.4178732,1.25685993 14.4178732,1.41239999 L14.4178732,12.1131562 C14.4178732,12.4242576 14.6869183,12.6764 15.0186667,12.6764 C15.3504153,12.6764 15.6194603,12.4242576 15.6194603,12.1131562 L15.6194603,1.41239999 C15.6194603,0.636306007 14.9459669,0.0044 14.1175934,0.0044 Z"
                id="Fill-2"></path>
            <path
                d="M9.61199359,5.214022 L3.60452694,5.214022 C3.27268479,5.214022 3.00373333,5.46616399 3.00373333,5.77715601 C3.00373333,6.08825799 3.27268479,6.3404 3.60452694,6.3404 L9.61199359,6.3404 C9.94371857,6.3404 10.2126699,6.08825799 10.2126699,5.77715601 C10.2126699,5.46616399 9.94371857,5.214022 9.61199359,5.214022 Z M9.61199359,8.030022 L3.60452694,8.030022 C3.27268479,8.030022 3.00373333,8.28216399 3.00373333,8.59315601 C3.00373333,8.90425799 3.27268479,9.1564 3.60452694,9.1564 L9.61199359,9.1564 C9.94371857,9.1564 10.2126699,8.90425799 10.2126699,8.59315601 C10.2126699,8.28216399 9.94371857,8.030022 9.61199359,8.030022 Z M7.20893632,10.822394 L3.60452691,10.822394 C3.27268481,10.822394 3.00373333,11.074536 3.00373333,11.385528 C3.00373333,11.69663 3.27268481,11.948772 3.60452691,11.948772 L7.20893632,11.948772 C7.54077853,11.948772 7.80973013,11.69663 7.80973013,11.385528 C7.80973013,11.074536 7.54077853,10.822394 7.20893632,10.822394 Z"
                id="Fill-3"></path>
        </g>
    </g>
</svg>