<?xml version="1.0" encoding="UTF-8"?>
<svg width="24px"
    height="24px"
    viewBox="0 0 24 24"
    version="1.1"
    xmlns="http://www.w3.org/2000/svg">
    <title>首页/隐藏-开</title>
    <g
        id="首页/隐藏-开"
        stroke="none"
        stroke-width="1"
        fill="none"
        fill-rule="evenodd">
        <g
            id="显示"
            transform="translate(3.000000, 3.000000)"
            fill="#FFFFFF"
            fill-rule="nonzero">
            <path
                d="M9,3.00000001 C14.23425,3.00000001 16.875,6.75 16.875,9.00000001 C16.875,11.25 14.23425,15 9,15 C3.76574999,15 1.125,11.25 1.125,9.00000001 C1.125,6.75 3.76574999,3.00000001 9,3.00000001 Z M9,4.5 C4.49625001,4.5 2.62499999,7.3125 2.62499999,9 C2.62499999,10.6875 4.49624999,13.5 9,13.5 C13.50375,13.5 15.375,10.6875 15.375,9 C15.375,7.3125 13.50375,4.5 9,4.5 Z M8.91975001,6.3765 L8.94225001,6.37725001 C9.00694669,6.37995681 9.06450687,6.41913062 9.09076137,6.47832259 C9.11701587,6.53751455 9.10741884,6.60647583 9.06600001,6.65625001 L9.0045,6.73425 C8.901,6.87299999 8.79449999,7.05675001 8.72249999,7.28924999 C8.52899999,7.90724999 8.74199999,8.532 9.07124999,8.86424999 C9.38399999,9.17924999 9.80399999,9.47174999 10.5,9.44175001 C10.83675,9.41325001 11.121,9.26400001 11.31975,9.12450001 L11.355,9.10575 C11.4123809,9.08208613 11.4778753,9.08938546 11.5286383,9.12510191 C11.5794012,9.16081836 11.6083926,9.21999859 11.6055,9.28200001 L11.604,9.31874999 C11.6033757,9.33177617 11.6023753,9.34478159 11.601,9.35775 C11.4113141,10.7359364 10.1793616,11.7267963 8.79255532,11.6165832 C7.40574906,11.50637 6.34576466,10.3333639 6.37614109,8.94251677 C6.40651753,7.55166961 7.51670424,6.42606055 8.90699999,6.3765 L8.94225001,6.37725001 L8.91975001,6.3765 Z"
                id="形状"></path>
        </g>
        <rect
            id="矩形"
            fill="#D8D8D8"
            opacity="0"
            x="0"
            y="0"
            width="24"
            height="24"></rect>
    </g>
</svg>