<?xml version="1.0" encoding="UTF-8"?>
<svg width="35px"
    height="35px"
    viewBox="0 0 35 35"
    version="1.1"
    xmlns="http://www.w3.org/2000/svg">
    <title>代币/YFI</title>
    <g
        id="代币/YFI"
        stroke="none"
        stroke-width="1"
        fill="none"
        fill-rule="evenodd">
        <rect
            id="矩形"
            fill="#D8D8D8"
            opacity="0"
            x="0"
            y="0"
            width="35"
            height="35"></rect>
        <g id="yearn-finance-yfi-logo">
            <path
                d="M17.5,0 C27.1635,0 35,7.8365 35,17.5 C35,27.1635 27.1635,35 17.5,35 C7.8365,35 0,27.1635 0,17.5 C0,7.8365 7.8365,0 17.5,0 Z"
                id="SVGID"
                fill="#006AE3"></path>
            <polygon
                id="SVGID-2"
                fill="#FFFFFF"
                fill-rule="nonzero"
                points="16.779 24.878 16.779 10.318 18.3645 10.318 18.3645 24.878"></polygon>
            <path
                d="M24.85,15.169 L19.9535,16.4675 L18.8615,11.3855 L20.3175,11.0565 L20.8915,13.4645 C20.8915,13.4645 22.2145,11.2945 20.4505,9.0475 C19.411,7.8925 18.9175,7.8435 17.752,7.6615 C16.7265,7.5145 14.343,7.861 13.6325,10.6435 C13.3315,12.4355 13.671,13.762 15.981,15.498 L15.8515,17.43 C15.8515,17.43 13.272,15.6135 12.607,14.3395 C12.0925,13.3315 11.2105,11.34 12.803,8.568 C13.6605,7.182 15.351,5.852 18.3295,5.992 C19.8275,6.055 23.485,7.8855 22.918,12.1625 C22.82,12.964 22.4035,14.0315 22.4035,14.0315 L24.4125,13.5835 L24.85,15.169 Z"
                id="SVGID-3"
                fill="#FFFFFF"
                fill-rule="nonzero"></path>
            <path
                d="M22.0535,26.5615 C21.1575,27.923 19.432,29.2075 16.4605,28.9905 C14.9625,28.889 11.3575,26.9605 12.0365,22.701 C12.1555,21.903 12.6,20.8495 12.6,20.8495 L10.5805,21.2415 L10.185,19.649 L15.1165,18.48 L16.0755,23.59 L14.609,23.8805 L14.098,21.455 C14.098,21.455 12.719,23.5865 14.42,25.8825 C15.428,27.0655 15.918,27.125 17.0835,27.3385 C18.102,27.5135 20.496,27.2265 21.28,24.465 C21.6265,22.6835 21.322,21.3465 19.061,19.5475 L19.243,17.619 C19.243,17.619 21.7735,19.502 22.4035,20.7935 C22.8865,21.819 23.716,23.835 22.0535,26.5615 L22.0535,26.5615 Z"
                id="SVGID-4"
                fill="#FFFFFF"
                fill-rule="nonzero"></path>
        </g>
    </g>
</svg>