<?xml version="1.0" encoding="UTF-8"?>
<svg width="58px"
    height="58px"
    viewBox="0 0 58 58"
    version="1.1"
    xmlns="http://www.w3.org/2000/svg">
    <title>图标/首页/收款</title>
    <g
        id="图标/首页/收款"
        stroke="none"
        stroke-width="1"
        fill="none"
        fill-rule="evenodd">
        <rect
            id="矩形"
            fill="#A1A1A1"
            opacity="0"
            x="0"
            y="0"
            width="58"
            height="58"></rect>
        <rect
            id="矩形"
            fill="#FFFFFF"
            opacity="0.160019985"
            x="0"
            y="0"
            width="58"
            height="58"
            rx="10"></rect>
        <path
            d="M20.67,11 L37.33,11 C37.9927417,11 38.53,11.5372583 38.53,12.2 L38.53,29.3853055 C38.53,30.0480472 39.0672583,30.5853055 39.73,30.5853055 L43.765,30.5853055 C44.8072035,30.5853055 45.6520763,31.4301783 45.6520763,32.4723818 C45.6520763,33.0342701 45.4016842,33.5669321 44.9690279,33.9254386 L30.0208621,46.3117467 C29.4287218,46.8024043 28.5712782,46.8024043 27.9791379,46.3117467 L13.0309721,33.9254386 C12.228471,33.2604723 12.116977,32.070855 12.7819433,31.2683539 C13.1404498,30.8356976 13.6731118,30.5853055 14.235,30.5853055 L18.27,30.5853055 C18.9327417,30.5853055 19.47,30.0480472 19.47,29.3853055 L19.47,12.2 C19.47,11.5372583 20.0072583,11 20.67,11 Z"
            id="路径-2"
            stroke="#FFFFFF"
            stroke-width="2.6"></path>
    </g>
</svg>