<?xml version="1.0" encoding="UTF-8"?>
<svg width="18px" height="18px" viewBox="0 0 18 18" version="1.1" xmlns="http://www.w3.org/2000/svg" xmlns:xlink="http://www.w3.org/1999/xlink">
    <title>图标/删除选中</title>
    <g id="图标/删除选中" stroke="none" stroke-width="1" fill="none" fill-rule="evenodd">
        <g id="多选选中" fill-rule="nonzero">
            <rect id="矩形" fill="#3BB7A5" x="0" y="0" width="18" height="18" rx="2"></rect>
            <path d="M15.0274819,6.15058501 L7.99372695,13.1865987 C7.81619862,13.3643937 7.57525845,13.4643003 7.32400686,13.4643003 C7.07275528,13.4643003 6.8318151,13.3643937 6.65428678,13.1865987 L2.97026165,9.50257354 C2.7144538,9.26673981 2.60826765,8.9097967 2.69357221,8.57248625 C2.77887677,8.23517581 3.04198341,7.97162548 3.37914964,7.8857527 C3.71631587,7.79987991 4.07343739,7.90546449 4.3097018,8.16087461 L7.32513623,11.1763091 L13.6857829,4.81340359 C14.0550354,4.44290368 14.6547232,4.4418924 15.0252231,4.81114485 C15.395723,5.1803973 15.3967343,5.78008508 15.0274819,6.15058501 L15.0274819,6.15058501 Z" id="路径" fill="#FFFFFF"></path>
        </g>
    </g>
</svg>