<?xml version="1.0" encoding="UTF-8"?>
<svg width="35px"
    height="35px"
    viewBox="0 0 35 35"
    version="1.1"
    xmlns="http://www.w3.org/2000/svg">
    <title>代币/TFT-2</title>
    <defs>
        <linearGradient
            x1="50%"
            y1="0%"
            x2="50%"
            y2="100%"
            id="linearGradient-1">
            <stop
                stop-color="#CDD3D5"
                offset="0%"></stop>
            <stop
                stop-color="#F4F5F5"
                offset="100%"></stop>
        </linearGradient>
        <linearGradient
            x1="50%"
            y1="0%"
            x2="50%"
            y2="100%"
            id="linearGradient-2">
            <stop
                stop-color="#F4F5F5"
                offset="0%"></stop>
            <stop
                stop-color="#CDD3D5"
                offset="100%"></stop>
        </linearGradient>
    </defs>
    <g
        id="代币/TFT-2"
        stroke="none"
        stroke-width="1"
        fill="none"
        fill-rule="evenodd">
        <rect
            id="矩形"
            fill="#D8D8D8"
            opacity="0"
            x="0"
            y="0"
            width="35"
            height="35"></rect>
        <circle
            id="椭圆形"
            fill="url(#linearGradient-1)"
            cx="17.5"
            cy="17.5"
            r="17.5"></circle>
        <circle
            id="椭圆形"
            fill="url(#linearGradient-2)"
            cx="17.5"
            cy="17.5"
            r="11.5"></circle>
        <g
            id="编组"
            transform="translate(17.496234, 17.500000) rotate(-8.000000) translate(-17.496234, -17.500000) translate(11.496234, 11.000000)">
            <path
                d="M-2.27373675e-13,1.13686838e-13 L11,1.13686838e-13 C11.5522847,1.13686838e-13 12,0.44771525 12,1 L12,3 L-2.27373675e-13,3 L-2.27373675e-13,1.13686838e-13 Z"
                id="矩形"
                fill="#0772BA"></path>
            <path
                d="M-1.13686838e-13,13 L11,13 C11.5522847,13 12,12.5522847 12,12 L12,10 L-1.13686838e-13,10 L-1.13686838e-13,13 Z"
                id="矩形"
                fill="#CBC9C8"></path>
            <polygon
                id="矩形"
                fill="#57B989"
                points="4 8 12 8 12 5 4 5"></polygon>
        </g>
    </g>
</svg>