<?xml version="1.0" encoding="UTF-8"?>
<svg width="24px"
    height="24px"
    viewBox="0 0 24 24"
    version="1.1"
    xmlns="http://www.w3.org/2000/svg">
    <title>首页/个人 白色</title>
    <g
        id="首页/个人-白色"
        stroke="none"
        stroke-width="1"
        fill="none"
        fill-rule="evenodd">
        <rect
            id="矩形"
            fill="#D8D8D8"
            opacity="0"
            x="0"
            y="0"
            width="24"
            height="24"></rect>
        <g
            id="用户"
            transform="translate(1.000000, 1.000000)"
            fill-rule="nonzero">
            <rect
                id="矩形"
                fill="#000000"
                opacity="0"
                x="0"
                y="0"
                width="22"
                height="22"></rect>
            <path
                d="M14.2700276,11.5736328 C15.6332581,10.5724609 16.5176323,8.96113281 16.5176323,7.14785156 C16.5176323,4.11640625 14.0413845,1.65 10.997843,1.65 C7.95430148,1.65 5.47805367,4.11640625 5.47805367,7.14785156 C5.47805367,8.96113281 6.3645849,10.5724609 7.72565839,11.5736328 C4.6023075,12.8583984 2.4,15.9242187 2.4,19.4927734 C2.4,19.9675781 2.78610484,20.3521484 3.26280411,20.3521484 C3.73950339,20.3521484 4.12560823,19.9675781 4.12560823,19.4927734 C4.12560823,15.7158203 7.21013293,12.6457031 11,12.6457031 C14.7898671,12.6457031 17.8743918,15.7179687 17.8743918,19.4927734 C17.8743918,19.9675781 18.2604966,20.3521484 18.7371959,20.3521484 C19.2138952,20.3521484 19.6,19.9675781 19.6,19.4927734 C19.597843,15.9242187 17.3933785,12.8583984 14.2700276,11.5736328 Z M7.08671273,7.13570312 C7.08671273,4.98957244 8.83975955,3.24570312 10.9922348,3.24570312 C13.14471,3.24570312 14.8977568,4.99178267 14.8977568,7.13570312 C14.8977568,9.27962358 13.14471,11.0257031 10.9922348,11.0257031 C8.83975955,11.0257031 7.08671273,9.27962358 7.08671273,7.13570312 Z"
                id="形状"
                fill="#FFFFFF"></path>
        </g>
    </g>
</svg>