<?xml version="1.0" encoding="UTF-8"?>
<svg width="35px" height="35px" viewBox="0 0 35 35" version="1.1" xmlns="http://www.w3.org/2000/svg" xmlns:xlink="http://www.w3.org/1999/xlink">
    <title>图标/Keystore</title>
    <g id="图标/Keystore" stroke="none" stroke-width="1" fill="none" fill-rule="evenodd">
        <rect id="矩形" fill="#D8D8D8" opacity="0" x="0" y="0" width="35" height="35"></rect>
        <circle id="椭圆形" fill="#3BB7A5" cx="17.5" cy="17.5" r="17.5"></circle>
        <g id="加密" transform="translate(8.000000, 7.000000)" fill="#FFFFFF" fill-rule="nonzero">
            <g id="编组">
                <path d="M16.3652,7.07966673 L14.7296,7.07966673 L14.7296,5.24495657 C14.7296,2.35305797 12.3872,-8.8817842e-15 9.5084,-8.8817842e-15 C6.6296,-8.8817842e-15 4.2872,2.35305797 4.2872,5.24495657 L4.2872,7.07846127 L2.6396,7.07846127 C1.2944,7.07846127 0.2,8.17784081 0.2,9.5291615 L0.2,17.9492998 C0.2,19.3006205 1.2944,20.4 2.6396,20.4 L16.3652,20.4 C17.7104,20.4 18.8048,19.3006205 18.8048,17.9492998 L18.8048,9.53036696 C18.8048,8.17904627 17.7104,7.07966673 16.3652,7.07966673 L16.3652,7.07966673 Z M5.9672,5.24495657 C5.9672,3.28367311 7.556,1.68764403 9.5084,1.68764403 C11.4608,1.68764403 13.0496,3.28367311 13.0496,5.24495657 L13.0496,7.07846127 L5.9672,7.07846127 L5.9672,5.24495657 Z M17.1248,17.9505052 C17.1248,18.3712108 16.784,18.7135614 16.3652,18.7135614 L2.6396,18.7135614 C2.2208,18.7135614 1.88,18.3712108 1.88,17.9505052 L1.88,9.53036696 C1.88,9.10966141 2.2208,8.76731076 2.6396,8.76731076 L16.3652,8.76731076 C16.784,8.76731076 17.1248,9.10966141 17.1248,9.53036696 L17.1248,17.9505052 L17.1248,17.9505052 Z" id="形状"></path>
                <path d="M9.3024,16.7652 C7.5996,16.7652 6.2148,15.3804 6.2148,13.6776 C6.2148,11.9748 7.5996,10.59 9.3024,10.59 C11.0052,10.59 12.39,11.9748 12.39,13.6776 C12.39,15.3804 11.0052,16.7652 9.3024,16.7652 Z M9.3024,12.27 C8.526,12.27 7.8948,12.9012 7.8948,13.6776 C7.8948,14.454 8.526,15.0852 9.3024,15.0852 C10.0788,15.0852 10.71,14.454 10.71,13.6776 C10.71,12.9012 10.0788,12.27 9.3024,12.27 Z" id="形状"></path>
            </g>
        </g>
    </g>
</svg>