<?xml version="1.0" encoding="UTF-8"?>
<svg width="24px"
    height="24px"
    viewBox="0 0 24 24"
    version="1.1"
    xmlns="http://www.w3.org/2000/svg">
    <title>首页/转账-白色</title>
    <g
        id="首页/转账-白色"
        stroke="none"
        stroke-width="1"
        fill="none"
        fill-rule="evenodd">
        <rect
            id="矩形"
            fill="#D8D8D8"
            opacity="0"
            x="0"
            y="0"
            width="24"
            height="24"></rect>
        <g
            id="转账"
            transform="translate(2.000000, 2.000000)"
            fill-rule="nonzero">
            <rect
                id="矩形"
                fill="#000000"
                opacity="0"
                x="0"
                y="0"
                width="20"
                height="20"></rect>
            <path
                d="M7.87555555,8.43777777 L3.33111111,8.43777777 C3.23551962,8.437503 3.14911729,8.38078143 3.11085277,8.29318214 C3.07258825,8.20558286 3.08968827,8.10365009 3.15444445,8.03333334 L7.30629087,3.57283131 C7.3983378,3.47394145 7.54155581,3.44151477 7.66722222,3.49111111 C7.79294079,3.54072805 7.87555555,3.66214946 7.87555555,3.79730493 L7.87555555,6.52888889 L7.87555555,6.52888889 C7.87555555,6.66222223 7.98333332,6.76888889 8.11666666,6.76888889 L16.1675014,6.76888889 C16.6283524,6.76888889 17.0019459,7.14248239 17.0019459,7.60333333 C17.0019459,8.06418427 16.6283524,8.43777777 16.1675014,8.43777777 L7.87555555,8.43777777 L7.87555555,8.43777777 Z M16.6688889,11.5622222 C16.7644804,11.562497 16.8508827,11.6192186 16.8891472,11.7068179 C16.9274118,11.7944171 16.9103117,11.8963499 16.8455555,11.9666667 L12.6937091,16.4271687 C12.6016622,16.5260586 12.4584442,16.5584852 12.3327778,16.5088889 C12.2070592,16.459272 12.1244445,16.3378505 12.1244445,16.2026951 L12.1244445,13.4777778 L12.1244445,13.4777778 C12.1244445,13.3446158 12.0164953,13.2366667 11.8833333,13.2366667 L3.84465696,13.2366667 C3.38196507,13.2366667 3.00687919,12.8615808 3.00687919,12.3988889 C3.00687919,11.936197 3.38196507,11.5611111 3.84465696,11.5611111 L12.1244445,11.5611111 L12.1244445,11.5611111 L16.6688889,11.5622222 Z"
                id="形状"
                fill="#FFFFFF"></path>
        </g>
    </g>
</svg>