<?xml version="1.0" encoding="UTF-8"?>
<svg width="24px"
    height="24px"
    viewBox="0 0 24 24"
    version="1.1"
    xmlns="http://www.w3.org/2000/svg">
    <title>首页/存入-白色</title>
    <g
        id="首页/存入-白色"
        stroke="none"
        stroke-width="1"
        fill="none"
        fill-rule="evenodd">
        <rect
            id="矩形"
            fill="#D8D8D8"
            opacity="0"
            x="0"
            y="0"
            width="24"
            height="24"></rect>
        <g
            id="存入"
            transform="translate(2.000000, 2.000000)"
            fill="#FFFFFF"
            fill-rule="nonzero">
            <g
                id="编组"
                transform="translate(2.000000, 3.000000)">
                <path
                    d="M8,0 C8.55228475,-1.01453063e-16 9,0.44771525 9,1 L8.99937085,7.166 L10.8606602,5.30568542 C11.1730796,4.99326599 11.6796116,4.99326599 11.992031,5.30568542 C12.3044505,5.61810486 12.3044505,6.12463684 11.992031,6.43705627 L8.73933983,9.68974747 C8.69586774,9.73321956 8.64863728,9.77064266 8.59869439,9.80201677 C8.43157446,9.9260734 8.22442047,10 8,10 C7.78413911,10 7.5842527,9.9316051 7.42082933,9.81530385 C7.36301428,9.78148998 7.30822462,9.73959547 7.25837662,9.68974747 L4.00568542,6.43705627 C3.69326599,6.12463684 3.69326599,5.61810486 4.00568542,5.30568542 C4.31810486,4.99326599 4.82463684,4.99326599 5.13705627,5.30568542 L6.99937085,7.168 L7,1 C7,0.44771525 7.44771525,1.01453063e-16 8,0 Z"
                    id="形状"></path>
                <path
                    d="M15.195,9.79 C15.6395892,9.79 16,10.2044724 16,10.71575 L16,13.46425 L15.9977987,13.5250135 C15.9992576,13.5448184 16,13.5648225 16,13.585 C16,14.0131736 15.6657128,14.3632703 15.2438886,14.3885398 C15.2280661,14.3894228 15.2115917,14.39 15.195,14.39 L15.181,14.389 L0.818312147,14.389876 C0.813883367,14.3899586 0.809445892,14.39 0.805,14.39 L0.756,14.386 L0.70402251,14.3837279 C0.307095573,14.3340541 0,13.9953901 0,13.585 L0.00192637878,13.528799 C0.000649164905,13.5074732 1.13686838e-13,13.4859488 1.13686838e-13,13.46425 L1.13686838e-13,10.71575 C1.13686838e-13,10.2044724 0.360410776,9.79 0.805,9.79 C1.24958922,9.79 1.61,10.2044724 1.61,10.71575 L1.61,12.779 L14.389,12.779 L14.39,10.71575 C14.39,10.2044724 14.7504108,9.79 15.195,9.79 Z"
                    id="形状结合"></path>
            </g>
        </g>
    </g>
</svg>