<?xml version="1.0" encoding="UTF-8"?>
<svg width="35px" height="35px" viewBox="0 0 35 35" version="1.1" xmlns="http://www.w3.org/2000/svg" xmlns:xlink="http://www.w3.org/1999/xlink">
    <title>图标/助记词</title>
    <g id="图标/助记词" stroke="none" stroke-width="1" fill="none" fill-rule="evenodd">
        <rect id="矩形" fill="#D8D8D8" opacity="0" x="0" y="0" width="35" height="35"></rect>
        <circle id="椭圆形" fill="#3BB7A5" cx="17.5" cy="17.5" r="17.5"></circle>
        <g id="笔记，记录" transform="translate(8.000000, 7.000000)" fill="#FFFFFF" fill-rule="nonzero">
            <path d="M16.3494737,0.28 C17.9679587,0.28 19.28,1.58895659 19.28,3.20363636 L19.2806695,13.5492595 C18.7890123,13.2968153 18.2500745,13.1234445 17.6806492,13.0459402 L17.68,3.32 C17.68,2.55749235 17.0856743,1.92713378 16.32448,1.8824 L16.24,1.88 L3.76,1.88 C2.99749235,1.88 2.36713378,2.47432567 2.3224,3.23552 L2.32,3.32 L2.32,18.68 C2.32,19.4425077 2.91432567,20.0728662 3.67552,20.1176 L3.76,20.12 L12.4701994,20.1196193 C12.7567219,20.7308866 13.1633306,21.2746561 13.6596485,21.7205509 L3.65052632,21.72 C2.03204132,21.72 0.72,20.4110434 0.72,18.7963636 L0.72,3.20363636 C0.72,1.58895659 2.03204132,0.28 3.65052632,0.28 L16.3494737,0.28 Z" id="形状结合"></path>
            <path d="M11.2,11.48 C11.597645,11.48 11.92,11.802355 11.92,12.2 C11.92,12.597645 11.597645,12.92 11.2,12.92 L4.96,12.92 C4.562355,12.92 4.24000004,12.597645 4.24000004,12.2 C4.24000004,11.802355 4.562355,11.48 4.96,11.48 L11.2,11.48 L11.2,11.48 Z" id="路径"></path>
            <path d="M7.68875004,17.92 L5.39125002,17.92 C4.993605,17.92 4.67125002,17.597645 4.67125002,17.2 C4.67125002,16.802355 4.993605,16.48 5.39125002,16.48 L7.68875004,16.48 C8.08639506,16.48 8.40875004,16.802355 8.40875004,17.2 C8.40875004,17.597645 8.08639506,17.92 7.68875004,17.92 Z" id="路径备份"></path>
            <path d="M15.04,6.2 C15.437645,6.2 15.76,6.52235498 15.76,6.92 C15.76,7.31764502 15.437645,7.64 15.04,7.64 L4.96,7.64 C4.56235498,7.64 4.24,7.31764502 4.24,6.92 C4.24,6.52235498 4.56235498,6.2 4.96,6.2 L15.04,6.2 Z" id="路径"></path>
        </g>
        <g id="对勾小" transform="translate(21.000000, 21.000000)">
            <rect id="矩形" fill="#000000" fill-rule="nonzero" opacity="0" x="0" y="0" width="8" height="8"></rect>
            <circle id="椭圆形" stroke="#FFFFFF" cx="4" cy="4" r="3.5"></circle>
            <path d="M3.108,5.57066666 C3.18614331,5.64883059 3.29214076,5.69274435 3.40266667,5.69274435 C3.51319258,5.69274435 3.61919002,5.64883059 3.69733334,5.57066666 L6.22333334,3.04466666 C6.3286076,2.9393924 6.36972187,2.78595183 6.33118882,2.64214451 C6.29265576,2.4983372 6.18032946,2.3860109 6.03652215,2.34747785 C5.89271484,2.3089448 5.73927426,2.35005907 5.634,2.45533334 L3.38466666,4.66866666 L2.378,3.662 C2.27272574,3.55672574 2.11928516,3.51561146 1.97547785,3.55414451 C1.83167053,3.59267757 1.71934423,3.70500387 1.68081118,3.84881118 C1.64227812,3.9926185 1.6833924,4.14605907 1.78866666,4.25133334 L3.108,5.57066666 Z" id="路径" fill="#FFFFFF" fill-rule="nonzero"></path>
        </g>
    </g>
</svg>