<?xml version="1.0" encoding="UTF-8"?>
<svg width="35px" height="35px" viewBox="0 0 35 35" version="1.1" xmlns="http://www.w3.org/2000/svg" xmlns:xlink="http://www.w3.org/1999/xlink">
    <title>代币/USDC</title>
    <g id="代币/USDC" stroke="none" stroke-width="1" fill="none" fill-rule="evenodd">
        <rect id="矩形" fill="#D8D8D8" opacity="0" x="0" y="0" width="35" height="35"></rect>
        <g id="usd-coin-usdc-logo" fill-rule="nonzero">
            <path d="M17.5,35 C27.197975,35 35,27.197975 35,17.5 C35,7.802025 27.197975,0 17.5,0 C7.802025,0 0,7.802025 0,17.5 C0,27.197975 7.802025,35 17.5,35 Z" id="路径" fill="#2775CA"></path>
            <path d="M22.3125,20.270775 C22.3125,17.71875 20.78125,16.84375 17.71875,16.479225 C15.53125,16.1875 15.09375,15.604225 15.09375,14.583275 C15.09375,13.562325 15.822975,12.90625 17.28125,12.90625 C18.59375,12.90625 19.322975,13.34375 19.6875,14.4375 C19.760475,14.65625 19.979225,14.802025 20.197975,14.802025 L21.364525,14.802025 C21.65625,14.802025 21.875,14.583275 21.875,14.291725 L21.875,14.21875 C21.583275,12.614525 20.270775,11.375 18.59375,11.229225 L18.59375,9.479225 C18.59375,9.1875 18.375,8.96875 18.010475,8.895775 L16.916725,8.895775 C16.625,8.895775 16.40625,9.114525 16.333275,9.479225 L16.333275,11.15625 C14.145775,11.447975 12.760475,12.90625 12.760475,14.729225 C12.760475,17.135475 14.21875,18.083275 17.28125,18.447975 C19.322975,18.8125 19.979225,19.25 19.979225,20.416725 C19.979225,21.58345 18.958275,22.385475 17.572975,22.385475 C15.677025,22.385475 15.020775,21.583275 14.802025,20.489525 C14.729225,20.197975 14.510475,20.052025 14.291725,20.052025 L13.052025,20.052025 C12.760475,20.052025 12.541725,20.270775 12.541725,20.5625 L12.541725,20.635475 C12.833275,22.458275 14,23.770775 16.40625,24.135475 L16.40625,25.885475 C16.40625,26.177025 16.625,26.395775 16.989525,26.46875 L18.083275,26.46875 C18.375,26.46875 18.59375,26.25 18.666725,25.885475 L18.666725,24.135475 C20.854225,23.770775 22.3125,22.239525 22.3125,20.270775 L22.3125,20.270775 Z" id="路径" fill="#FFFFFF"></path>
            <path d="M13.78125,27.927025 C8.09375,25.885475 5.177025,19.541725 7.291725,13.927025 C8.385475,10.864525 10.791725,8.53125 13.78125,7.4375 C14.072975,7.291725 14.21875,7.072975 14.21875,6.708275 L14.21875,5.6875 C14.21875,5.395775 14.072975,5.177025 13.78125,5.104225 C13.708275,5.104225 13.5625,5.104225 13.489525,5.177025 C6.5625,7.364525 2.770775,14.729225 4.958275,21.65625 C6.270775,25.739525 9.40625,28.875 13.489525,30.1875 C13.78125,30.333275 14.072975,30.1875 14.145775,29.895775 C14.21875,29.822975 14.21875,29.75 14.21875,29.604225 L14.21875,28.583275 C14.21875,28.364525 14,28.072975 13.78125,27.927025 Z M21.510475,5.177025 C21.21875,5.03125 20.927025,5.177025 20.854225,5.46875 C20.78125,5.541725 20.78125,5.614525 20.78125,5.760475 L20.78125,6.78125 C20.78125,7.072975 21,7.364525 21.21875,7.510475 C26.90625,9.552025 29.822975,15.895775 27.708275,21.510475 C26.614525,24.572975 24.208275,26.90625 21.21875,28 C20.927025,28.145775 20.78125,28.364525 20.78125,28.729225 L20.78125,29.75 C20.78125,30.041725 20.927025,30.260475 21.21875,30.333275 C21.291725,30.333275 21.4375,30.333275 21.510475,30.260475 C28.4375,28.072975 32.229225,20.708275 30.041725,13.78125 C28.729225,9.625 25.520775,6.489525 21.510475,5.177025 Z" id="形状" fill="#FFFFFF"></path>
        </g>
    </g>
</svg>