<?xml version="1.0" encoding="UTF-8"?>
<svg width="35px" height="35px" viewBox="0 0 35 35" version="1.1" xmlns="http://www.w3.org/2000/svg" xmlns:xlink="http://www.w3.org/1999/xlink">
    <title>图标/私钥</title>
    <g id="图标/私钥" stroke="none" stroke-width="1" fill="none" fill-rule="evenodd">
        <rect id="矩形" fill="#D8D8D8" opacity="0" x="0" y="0" width="35" height="35"></rect>
        <circle id="椭圆形" fill="#3BB7A5" cx="17.5" cy="17.5" r="17.5"></circle>
        <g id="私钥" transform="translate(8.000000, 8.000000)" fill="#FFFFFF" fill-rule="nonzero">
            <path d="M17.596,2.068 C15.376,-0.152 11.776,-0.152 9.568,2.068 C7.54,4.096 7.372,7.288 9.052,9.508 L0.976,17.584 C0.676,17.884 0.676,18.388 0.976,18.688 C1.132,18.844 1.324,18.916 1.528,18.916 C1.732,18.916 1.924,18.844 2.08,18.688 L3.328,17.44 L5.368,19.48 C5.524,19.636 5.716,19.708 5.92,19.708 C6.124,19.708 6.316,19.636 6.472,19.48 C6.772,19.18 6.772,18.676 6.472,18.376 L4.432,16.336 L5.764,15.004 L7.192,16.432 C7.348,16.588 7.54,16.66 7.744,16.66 C7.948,16.66 8.14,16.588 8.296,16.432 C8.596,16.132 8.596,15.628 8.296,15.328 L6.868,13.9 L10.156,10.612 C11.164,11.38 12.376,11.764 13.576,11.764 C15.028,11.764 16.48,11.212 17.596,10.108 C19.816,7.888 19.816,4.288 17.596,2.068 Z M16.492,9.004 C14.884,10.612 12.268,10.612 10.672,9.004 C9.076,7.396 9.064,4.78 10.672,3.172 C11.476,2.368 12.532,1.972 13.588,1.972 C14.644,1.972 15.7,2.368 16.504,3.172 C18.1,4.78 18.1,7.396 16.492,9.004 Z" id="形状"></path>
            <path d="M11.932,4.432 C11.02,5.344 11.02,6.832 11.932,7.744 C12.388,8.2 12.988,8.428 13.588,8.428 C14.188,8.428 14.788,8.2 15.244,7.744 C16.156,6.832 16.156,5.344 15.244,4.432 C14.32,3.52 12.844,3.52 11.932,4.432 L11.932,4.432 Z M14.308,6.808 C13.912,7.204 13.264,7.204 12.868,6.808 C12.472,6.412 12.472,5.764 12.868,5.368 C13.072,5.164 13.324,5.068 13.588,5.068 C13.852,5.068 14.104,5.164 14.308,5.368 C14.704,5.764 14.704,6.412 14.308,6.808 Z" id="形状"></path>
        </g>
    </g>
</svg>