<?xml version="1.0" encoding="UTF-8"?>
<svg width="35px"
    height="35px"
    viewBox="0 0 35 35"
    version="1.1"
    xmlns="http://www.w3.org/2000/svg">
    <title>代币/WBTC</title>
    <g
        id="代币/WBTC"
        stroke="none"
        stroke-width="1"
        fill="none"
        fill-rule="evenodd">
        <rect
            id="矩形"
            fill="#D8D8D8"
            opacity="0"
            x="0"
            y="0"
            width="35"
            height="35"></rect>
        <g
            id="wrapped-bitcoin-wbtc-logo"
            fill-rule="nonzero">
            <path
                d="M28.3468182,7.29590909 L27.3922727,8.25045455 C32.1133484,13.4132869 32.1133484,21.325804 27.3922727,26.4886364 L28.3468182,27.4431818 C33.5993085,21.7458779 33.5993085,12.9709403 28.3468182,7.27363636 L28.3468182,7.29590909 Z"
                id="Shape"
                fill="#5A5564"></path>
            <path
                d="M8.27272727,7.37863636 C13.4355596,2.65756065 21.3480767,2.65756065 26.5109091,7.37863636 L27.4654545,6.42409091 C21.7681506,1.17160058 12.993213,1.17160058 7.29590909,6.42409091 L8.27272727,7.37863636 Z"
                id="Shape-2"
                fill="#5A5564"></path>
            <path
                d="M7.37863636,26.4981818 C2.66337699,21.3367531 2.66337699,13.4309742 7.37863636,8.26954545 L6.42409091,7.315 C1.17160058,13.0123039 1.17160058,21.7872415 6.42409091,27.4845455 L7.37863636,26.4981818 Z"
                id="Shape-3"
                fill="#5A5564"></path>
            <path
                d="M26.4981818,27.3795455 C21.3353495,32.1006212 13.4228324,32.1006212 8.26,27.3795455 L7.30545455,28.3340909 C13.0027585,33.5865812 21.7776961,33.5865812 27.475,28.3340909 L26.4981818,27.3795455 Z"
                id="Shape-4"
                fill="#5A5564"></path>
            <path
                d="M23.4086364,14.1972727 C23.2177273,12.2054545 21.4995455,11.5372727 19.3263636,11.3336364 L19.3263636,8.59090909 L17.6463636,8.59090909 L17.6463636,11.2827273 C17.2040909,11.2827273 16.7522727,11.2827273 16.3036364,11.2827273 L16.3036364,8.59090909 L14.6363636,8.59090909 L14.6363636,11.3527273 L11.2286364,11.3527273 L11.2286364,13.1504545 C11.2286364,13.1504545 12.4695455,13.1281818 12.4504545,13.1504545 C12.9155125,13.0992934 13.3375404,13.4256617 13.405,13.8886364 L13.405,21.4486364 C13.3953419,21.6073419 13.3218915,21.7553904 13.2013636,21.8590909 C13.0830795,21.9647853 12.9267938,22.0176467 12.7686364,22.0054545 C12.7909091,22.0245455 11.5468182,22.0054545 11.5468182,22.0054545 L11.2286364,24.0131818 L14.6045455,24.0131818 L14.6045455,26.8195455 L16.2845455,26.8195455 L16.2845455,24.0545455 L17.6272727,24.0545455 L17.6272727,26.8068182 L19.3104545,26.8068182 L19.3104545,24.0322727 C22.1486364,23.8604545 24.1277273,23.1604545 24.3759091,20.5036364 C24.5763636,18.3654545 23.5709091,17.4109091 21.9640909,17.0259091 C22.9409091,16.5454545 23.5454545,15.6545455 23.4086364,14.1972727 Z M21.0540909,20.1727273 C21.0540909,22.26 17.4777273,22.0213636 16.3386364,22.0213636 L16.3386364,18.3177273 C17.4777273,18.3209091 21.0540909,17.9931818 21.0540909,20.1727273 Z M20.2745455,14.9545455 C20.2745455,16.8636364 17.29,16.6313636 16.3418182,16.6313636 L16.3418182,13.265 C17.29,13.265 20.2745455,12.9659091 20.2745455,14.9545455 Z"
                id="Shape-5"
                fill="#F09242"></path>
            <path
                d="M17.3790909,34.7645457 C7.77995538,34.7627882 -0.000585435991,26.980348 3.23631783e-07,17.3812123 C0.000586083255,7.78207664 7.78207664,0.000586083255 17.3812123,3.23631783e-07 C26.980348,-0.000585435991 34.7627882,7.77995538 34.7645457,17.3790909 C34.7653896,21.9902589 32.9339841,26.4128077 29.6733959,29.6733959 C26.4128077,32.9339841 21.9902589,34.7653896 17.3790909,34.7645457 Z M17.3790909,1.35544948 C8.53548412,1.36248235 1.3710349,8.53547612 1.37454669,17.379085 C1.37806107,26.2226939 8.54820691,33.3899949 17.3918165,33.3899949 C26.2354261,33.3899949 33.4055746,26.2226998 33.4090922,17.3790909 C33.4107813,13.1277375 31.7222507,9.05011593 28.7154928,6.04455173 C25.708735,3.03898754 21.6304433,1.3520761 17.3790909,1.35544948 Z"
                id="Shape-6"
                fill="#282138"></path>
        </g>
    </g>
</svg>