<?xml version="1.0" encoding="UTF-8"?>
<svg width="24px"
    height="24px"
    viewBox="0 0 24 24"
    version="1.1"
    xmlns="http://www.w3.org/2000/svg">
    <title>图标/移动</title>
    <g
        id="图标/移动"
        stroke="none"
        stroke-width="1"
        fill="none"
        fill-rule="evenodd">
        <g
            id="icon-移动-14x14"
            fill="#000000"
            fill-rule="nonzero">
            <rect
                id="矩形"
                opacity="0"
                x="0"
                y="0"
                width="24"
                height="24"></rect>
            <path
                d="M4.39999999,6.96 C4.39999999,6.42980664 4.82980663,6 5.35999999,6 L19.44,6 C19.9701934,6 20.4,6.42980664 20.4,6.96 C20.4,7.49019336 19.9701934,7.92 19.44,7.92 L5.35999999,7.92 C4.82980663,7.92 4.39999999,7.49019336 4.39999999,6.96 L4.39999999,6.96 Z M4.39999999,11.96 C4.39999999,11.4298066 4.82980663,11 5.35999999,11 L19.44,11 C19.9701934,11 20.4,11.4298066 20.4,11.96 C20.4,12.4901934 19.9701934,12.92 19.44,12.92 L5.35999999,12.92 C4.82980663,12.92 4.39999999,12.4901934 4.39999999,11.96 L4.39999999,11.96 Z M5.35999999,16 C4.82980663,16 4.39999999,16.4298066 4.39999999,16.96 C4.39999999,17.4901934 4.82980663,17.92 5.35999999,17.92 L19.44,17.92 C19.782975,17.92 20.0998969,17.7370251 20.2713844,17.44 C20.4428719,17.142975 20.4428719,16.777025 20.2713844,16.48 C20.0998969,16.1829749 19.782975,16 19.44,16 L5.35999999,16 L5.35999999,16 Z"
                id="形状"></path>
        </g>
        <rect
            id="矩形"
            fill="#D8D8D8"
            opacity="0"
            x="0"
            y="0"
            width="24"
            height="24"></rect>
    </g>
</svg>