<?xml version="1.0" encoding="UTF-8"?>
<svg width="28px" height="28px" viewBox="0 0 28 28" version="1.1" xmlns="http://www.w3.org/2000/svg" xmlns:xlink="http://www.w3.org/1999/xlink">
    <title>关闭</title>
    <g id="去中心化钱包" stroke="none" stroke-width="1" fill="none" fill-rule="evenodd">
        <g id="提示（1-2）" transform="translate(-193.000000, -543.000000)">
            <g id="关闭" transform="translate(193.000000, 543.000000)">
                <circle id="椭圆形" stroke="#FFFFFF" stroke-width="1.4" cx="13.92" cy="13.92" r="13.22"></circle>
                <path d="M19.1782891,19.1669612 C19.0423017,19.3030992 18.8577735,19.379594 18.6653517,19.379594 C18.4729301,19.379594 18.2884008,19.3030992 18.1524144,19.1669612 L14.0525391,15.0670865 L9.95266425,19.1669612 C9.76940932,19.3502165 9.50230941,19.4217858 9.25197852,19.3547091 C9.00164766,19.2876333 8.80611698,19.0921024 8.73904103,18.8417722 C8.67196508,18.5914412 8.74353428,18.3243411 8.92678921,18.1410863 L13.0266644,14.0412115 L8.92678921,9.94133654 C8.7202613,9.73357638 8.65905976,9.4219409 8.77167548,9.15150463 C8.8842912,8.88106832 9.14859203,8.70497935 9.44153919,8.70521165 C9.63299182,8.70505887 9.81673284,8.78064031 9.95266425,8.91546164 L14.0525391,13.0153365 L18.1524144,8.91546164 C18.3601745,8.70893372 18.6718097,8.64773218 18.9422464,8.76034789 C19.2126826,8.87296361 19.3887717,9.13726443 19.3885394,9.43021159 C19.3886922,9.62166418 19.3131104,9.80540521 19.1782891,9.94133654 L15.0784141,14.0412115 L19.1782891,18.1410863 C19.3144277,18.2770733 19.390922,18.4616025 19.390922,18.6540236 C19.390922,18.8464456 19.3144277,19.0309738 19.1782891,19.1669612 Z" id="路径" fill="#FFFFFF" fill-rule="nonzero"></path>
            </g>
        </g>
    </g>
</svg>