<?xml version="1.0" encoding="UTF-8"?>
<svg width="24px"
    height="24px"
    viewBox="0 0 24 24"
    version="1.1"
    xmlns="http://www.w3.org/2000/svg">
    <title>图标/扫一扫-黑色</title>
    <g
        id="图标/扫一扫-黑色"
        stroke="none"
        stroke-width="1"
        fill="none"
        fill-rule="evenodd">
        <rect
            id="矩形"
            fill="#D8D8D8"
            opacity="0"
            x="0"
            y="0"
            width="24"
            height="24"></rect>
        <g
            id="扫一扫"
            transform="translate(2.000000, 2.000000)"
            fill="#000000"
            fill-rule="nonzero">
            <rect
                id="矩形"
                opacity="0"
                x="0"
                y="0"
                width="20"
                height="20"></rect>
            <path
                d="M2.75247601,7.55620043 C2.37140204,7.55620043 2,7.24279358 2,6.86167537 L2,3.73727993 C2,2.77771328 2.77762303,2 3.73707831,2 L6.86111112,2 C7.24218509,2 7.55555557,2.41013735 7.55555557,2.79125556 C7.55555557,3.17237376 7.24218509,3.50512672 6.86111112,3.50512672 L3.87248531,3.50512672 C3.68098113,3.50512672 3.52429589,3.66183014 3.52429589,3.85335654 L3.52429589,6.86167537 C3.52429589,7.24279358 3.13548438,7.55620043 2.75247601,7.55620043 Z M17.8851749,7.55426581 C17.5176416,7.52911587 17.1210925,7.21570902 17.1210925,6.84813309 L17.1210925,3.85335654 C17.1210925,3.66183012 16.9644073,3.5051267 16.7729031,3.50512672 L13.8190963,3.50512672 C13.451563,3.50512672 13.1381925,3.16656993 13.1130455,2.79899399 C13.0859641,2.39659507 13.4090065,2 13.8055555,2 L16.9295884,2 C17.8890436,2 18.6666667,2.7777133 18.6666667,3.73727993 L18.6666667,6.86167537 C18.6647323,7.25827046 18.2875271,7.58135037 17.8851749,7.55426581 Z M16.9295884,18.6666667 L13.8190963,18.6666667 C13.451563,18.6666667 13.1381925,18.3087638 13.1130455,17.9411879 C13.0859641,17.5387889 13.4090065,17.1035017 13.8055555,17.1035016 L16.7748375,17.1035016 C16.9663417,17.1035016 17.1230269,16.9467982 17.1230269,16.7552718 L17.1230269,13.8185336 C17.1230269,13.4509576 17.4808883,13.1375508 17.8484215,13.1124009 C18.2507737,13.0853163 18.6666667,13.4083962 18.6666667,13.8049913 L18.6666667,16.9293867 C18.6647323,17.8889534 17.8871093,18.6666667 16.9295884,18.6666667 L16.9295884,18.6666667 Z M6.86111112,18.6666667 L3.73707831,18.6666667 C2.77762303,18.6666667 2,17.8889534 2,16.9293867 L2,13.8185336 C2,13.4509576 2.3772052,13.1375508 2.74473848,13.1124009 C3.14709069,13.0853163 3.54363975,13.4083962 3.54363975,13.8049913 L3.54363975,16.7552718 C3.54363975,16.9467982 3.70032499,17.1035017 3.89182915,17.1035016 L6.84757041,17.1035016 C7.21510368,17.1035016 7.52847415,17.5194428 7.55362117,17.8870188 C7.58070257,18.2894177 7.25959456,18.6666667 6.86111112,18.6666667 L6.86111112,18.6666667 Z M17.9722222,11.0984717 L2.69444445,11.0984717 C2.31337047,11.0984717 2,10.7463726 2,10.3130199 C2,9.88160185 2.31337047,9.5275682 2.69444445,9.5275682 L17.9702878,9.5275682 C18.3513618,9.5275682 18.6647323,9.87966724 18.6647323,10.3130199 C18.6647323,10.7463726 18.3532962,11.0984717 17.9722222,11.0984717 Z"
                id="形状"></path>
        </g>
    </g>
</svg>