<?xml version="1.0" encoding="UTF-8"?>
<svg width="35px"
    height="35px"
    viewBox="0 0 35 35"
    version="1.1"
    xmlns="http://www.w3.org/2000/svg">
    <title>代币/DAI</title>
    <g
        id="代币/DAI"
        stroke="none"
        stroke-width="1"
        fill="none"
        fill-rule="evenodd">
        <rect
            id="矩形"
            fill="#D8D8D8"
            opacity="0"
            x="0"
            y="0"
            width="35"
            height="35"></rect>
        <g
            id="multi-collateral-dai-dai-logo"
            fill-rule="nonzero">
            <path
                d="M17.5,0 C27.1658717,0 35,7.83570336 35,17.5 C35,27.1658717 27.1658717,35 17.5,35 C7.83570336,35 0,27.1650842 0,17.5 C0,7.83570336 7.83570336,0 17.5,0 Z"
                id="路径"
                fill="#F5AC37"></path>
            <path
                d="M18.1449689,18.7355999 L24.7946854,18.7355999 C24.9364369,18.7355999 25.003375,18.7355999 25.0136126,18.549748 C25.0679507,17.8732787 25.0679507,17.1928719 25.0136126,16.5156152 C25.0136126,16.3841013 24.9482495,16.3297633 24.8057106,16.3297633 L11.5716407,16.3297633 C11.4078391,16.3297633 11.3637386,16.3841013 11.3637386,16.5376654 L11.3637386,18.4843848 C11.3637386,18.7355999 11.3637386,18.7355999 11.6259788,18.7355999 L18.1449689,18.7355999 L18.1449689,18.7355999 Z M24.2709927,14.054653 C24.2898929,14.0050401 24.2898929,13.950702 24.2709927,13.9018765 C24.1599541,13.6601116 24.0284403,13.4293718 23.8756638,13.2128071 C23.6457115,12.8426784 23.3748087,12.5016875 23.0661057,12.195347 C22.9204167,12.0102826 22.75189,11.8441184 22.5628881,11.7031545 C21.6163037,10.897534 20.4909549,10.3273783 19.2813428,10.0407254 C18.6710242,9.90369904 18.047318,9.83833588 17.4220367,9.84384844 L11.548803,9.84384844 C11.3850014,9.84384844 11.3629511,9.90921159 11.3629511,10.0517505 L11.3629511,13.9341643 C11.3629511,14.097966 11.3629511,14.1420664 11.5708532,14.1420664 L24.1922419,14.1420664 C24.1922419,14.1420664 24.3017055,14.1200162 24.3237557,14.054653 L24.2702052,14.054653 L24.2709927,14.054653 Z M24.2709927,21.0107101 C24.0851409,20.9902349 23.897714,20.9902349 23.7118621,21.0107101 L11.5826658,21.0107101 C11.4188642,21.0107101 11.3637386,21.0107101 11.3637386,21.2296373 L11.3637386,25.0254253 C11.3637386,25.200252 11.3637386,25.2443524 11.5826658,25.2443524 L17.1826343,25.2443524 C17.450387,25.2648276 17.7181397,25.2459275 17.9803798,25.1900144 C18.7930879,25.1317388 19.5924084,24.9553371 20.354716,24.6647466 C20.6319188,24.5686707 20.8996715,24.4434569 21.1524615,24.2930429 L21.2288498,24.2930429 C22.5416254,23.6102736 23.6079111,22.5376879 24.2804428,21.2209747 C24.2804428,21.2209747 24.3568311,21.0555981 24.2709927,21.0122851 L24.2709927,21.0107101 Z M9.16580416,27.2123346 L9.16580416,27.1469715 L9.16580416,24.598596 L9.16580416,23.7346998 L9.16580416,21.1642741 C9.16580416,21.0217352 9.16580416,21.0004725 8.99097741,21.0004725 L6.61742867,21.0004725 C6.48591486,21.0004725 6.43157682,21.0004725 6.43157682,20.8256458 L6.43157682,18.7474125 L8.96892719,18.7474125 C9.11067861,18.7474125 9.16580416,18.7474125 9.16580416,18.5615606 L9.16580416,16.5053776 C9.16580416,16.3738637 9.16580416,16.3415759 8.99097741,16.3415759 L6.61742867,16.3415759 C6.48591486,16.3415759 6.43157682,16.3415759 6.43157682,16.1667492 L6.43157682,14.2420799 C6.43157682,14.1215912 6.43157682,14.0893034 6.60640356,14.0893034 L8.95790208,14.0893034 C9.12170372,14.0893034 9.16580416,14.0893034 9.16580416,13.8814013 L9.16580416,7.98611736 C9.16580416,7.81129061 9.16580416,7.76719017 9.38473135,7.76719017 L17.5874134,7.76719017 C18.1827693,7.79081541 18.7741877,7.85617856 19.3593061,7.96406714 C20.5649806,8.18693187 21.7234047,8.61769868 22.7826028,9.23274233 C23.4850599,9.64618396 24.1316038,10.145464 24.7072721,10.7203447 C25.1404014,11.1700117 25.5310053,11.6566916 25.8775088,12.1748717 C26.2216497,12.7001395 26.5075151,13.2616326 26.7319548,13.848326 C26.7595176,14.0011025 26.9059941,14.104266 27.0587706,14.0782783 L29.0165152,14.0782783 C29.2677302,14.0782783 29.2677302,14.0782783 29.2787553,14.3192557 L29.2787553,16.1131986 C29.2787553,16.2880254 29.2133921,16.3321258 29.0377779,16.3321258 L27.5281253,16.3321258 C27.3753488,16.3321258 27.3312483,16.3321258 27.3422734,16.5290028 C27.402124,17.1952345 27.402124,17.8638286 27.3422734,18.5300603 C27.3422734,18.7159122 27.3422734,18.7379624 27.550963,18.7379624 L29.2779678,18.7379624 C29.354356,18.8364009 29.2779678,18.9348393 29.2779678,19.0340653 C29.2889929,19.1608541 29.2889929,19.2892179 29.2779678,19.4160067 L29.2779678,20.7398074 C29.2779678,20.9256593 29.2236297,20.9807848 29.0590406,20.9807848 L26.9918324,20.9807848 C26.8477185,20.953222 26.7075421,21.0453605 26.6744667,21.1886869 C26.1822743,22.4683872 25.3947664,23.6157862 24.3773063,24.5355954 C24.0056026,24.8702862 23.6149986,25.1852894 23.2070696,25.4758798 C22.7692152,25.7278823 22.3431734,25.9901224 21.8942939,26.1980245 C21.0681982,26.5697282 20.2019395,26.8437809 19.3128431,27.0178202 C18.4686347,27.1690217 17.6126136,27.2375349 16.7534425,27.2257223 L9.16265413,27.2257223 L9.16265413,27.2146971 L9.16580416,27.2123346 Z"
                id="形状"
                fill="#FEFEFD"></path>
        </g>
    </g>
</svg>