<?xml version="1.0" encoding="UTF-8"?>
<svg width="13px"
    height="14px"
    viewBox="0 0 13 14"
    version="1.1"
    xmlns="http://www.w3.org/2000/svg">
    <title>图标/复制</title>
    <g
        id="去中心化钱包"
        stroke="none"
        stroke-width="1"
        fill="none"
        fill-rule="evenodd">
        <g
            id="主页-1-1-eth展开"
            transform="translate(-146.000000, -326.000000)">
            <g
                id="卡片"
                transform="translate(12.000000, 203.000000)">
                <g
                    id="复制图层"
                    transform="translate(132.000000, 122.000000)">
                    <path
                        d="M4.5267655,2.69943515 C4.59713888,2.23314505 4.87792334,2 5.36911888,2 C5.86031443,2 8.28504955,2 12.6433243,2 C13.3196709,2.3369768 13.6578442,2.66535636 13.6578442,2.98513866 C13.6578442,3.30492096 13.6578442,5.84877677 13.6578442,10.6167061 C13.4204892,11.4315837 12.854666,11.8390225 11.9603746,11.8390225"
                        id="路径-6"
                        stroke="#FFFFFF"></path>
                    <path
                        d="M4.5267655,3.80236502 C3.50892183,3.80586597 3,4.32626557 3,5.36356385 L3,12.1053157 L3,12.1053157 C3.18603743,13.0826548 3.69495927,13.5713244 4.5267655,13.5713244 L10.5506026,13.5713244 L10.5506026,13.5713244 C11.4904506,13.3089753 11.9603746,12.7315413 11.9603746,11.8390225 L11.9603746,6.7725618 L11.9603746,6.7725618 C11.9603746,6.48473549 11.8363549,6.21086582 11.6200351,6.02099815 L9.37535306,4.05080137 C9.19290915,3.89066716 8.95844492,3.80236502 8.71569248,3.80236502 L4.5267655,3.80236502 Z"
                        id="路径-7"
                        stroke="#FFFFFF"></path>
                    <path
                        d="M9.09230487,3.6471833 C8.9020213,4.87391872 8.99696713,5.60291512 9.37714237,5.8341725 C9.84391994,6.2592381 10.7208339,6.34487756 12.0078844,6.09109086 L9.09230487,3.6471833 Z"
                        id="路径-8"
                        fill="#FFFFFF"></path>
                </g>
            </g>
        </g>
    </g>
</svg>