<?xml version="1.0" encoding="UTF-8"?>
<svg width="24px"
    height="24px"
    viewBox="0 0 24 24"
    version="1.1"
    xmlns="http://www.w3.org/2000/svg">
    <title>首页/列表</title>
    <g
        id="首页/列表"
        stroke="none"
        stroke-width="1"
        fill="none"
        fill-rule="evenodd">
        <rect
            id="矩形"
            fill="#D8D8D8"
            opacity="0"
            x="0"
            y="0"
            width="24"
            height="24"></rect>
        <path
            d="M4,6.96 C4,6.42980664 4.42980664,6 4.96,6 L19.04,6 C19.5701934,6 20,6.42980664 20,6.96 C20,7.49019336 19.5701934,7.92 19.04,7.92 L4.96,7.92 C4.42980664,7.92 4,7.49019336 4,6.96 L4,6.96 Z M4,11.96 C4,11.4298066 4.42980664,11 4.96,11 L19.04,11 C19.5701934,11 20,11.4298066 20,11.96 C20,12.4901934 19.5701934,12.92 19.04,12.92 L4.96,12.92 C4.42980664,12.92 4,12.4901934 4,11.96 L4,11.96 Z M4.96,16 C4.42980664,16 4,16.4298066 4,16.96 C4,17.4901934 4.42980664,17.92 4.96,17.92 L19.04,17.92 C19.382975,17.92 19.6998969,17.7370251 19.8713844,17.44 C20.0428719,17.142975 20.0428719,16.777025 19.8713844,16.48 C19.6998969,16.1829749 19.382975,16 19.04,16 L4.96,16 L4.96,16 Z"
            id="形状"
            fill="#FFFFFF"
            fill-rule="nonzero"></path>
    </g>
</svg>