<?xml version="1.0" encoding="UTF-8"?>
<svg width="35px" height="35px" viewBox="0 0 35 35" version="1.1" xmlns="http://www.w3.org/2000/svg" xmlns:xlink="http://www.w3.org/1999/xlink">
    <title>图标/trx-选中</title>
    <g id="图标/trx-选中" stroke="none" stroke-width="1" fill="none" fill-rule="evenodd">
        <rect id="矩形" fill="#D8D8D8" opacity="0" x="0" y="0" width="35" height="35"></rect>
        <circle id="椭圆形" fill="#EB6B56" cx="17.5" cy="17.5" r="17.5"></circle>
        <g id="TRX" fill-rule="nonzero">
            <rect id="矩形" fill="#000000" opacity="0" x="0" y="0" width="35" height="35"></rect>
            <path d="M16.3071289,26.90625 C16.278418,26.90625 16.2486816,26.904541 16.2199707,26.9000977 C15.98379,26.8676682 15.7854593,26.7061288 15.7059082,26.4813965 L9.49135742,8.87783203 C9.41240234,8.65361328 9.46469727,8.40410156 9.62705078,8.23046875 C9.7894043,8.05683594 10.0358398,7.98710938 10.2638184,8.05170898 L22.7834961,11.5431641 C22.864502,11.5657227 22.941748,11.6046875 23.0077148,11.657666 L25.3616699,13.5272949 C25.6269043,13.7375 25.6815918,14.1186035 25.486084,14.3940918 L16.8273437,26.6365723 C16.7080633,26.8056579 16.5140535,26.90625 16.3071289,26.90625 Z M11.1015625,9.60859375 L16.4975098,24.895459 L24.0966797,14.1507324 L22.3166016,12.7367187 L11.1015625,9.60859375 Z" id="形状" fill="#FFFFFF"></path>
            <path d="M16.3081543,26.90625 C16.2845703,26.90625 16.2620117,26.9048828 16.2384277,26.9024902 C15.8887695,26.8645508 15.6358398,26.5500977 15.6734375,26.2004395 L16.6106445,17.5225586 C16.6479004,17.1715332 16.9729492,16.9250977 17.3126953,16.9575684 C17.6623535,16.9955078 17.9152832,17.3099609 17.8776855,17.6596191 L16.9404785,26.3375 C16.9056152,26.663916 16.6294434,26.90625 16.3081543,26.90625 L16.3081543,26.90625 Z" id="路径" fill="#FFFFFF"></path>
            <path d="M17.2443359,18.2283692 C17.082666,18.2283692 16.9206543,18.1675293 16.7962402,18.0448242 C16.5460449,17.7970215 16.5436523,17.3937012 16.7911133,17.1431641 L22.1586914,11.7089355 C22.4064941,11.4587402 22.8098145,11.4563477 23.0600098,11.7034668 C23.3102051,11.9512695 23.3125977,12.3545898 23.0651367,12.605127 L17.6972168,18.0390137 C17.5777166,18.1602496 17.4145665,18.2284648 17.2443359,18.2283692 Z" id="路径" fill="#FFFFFF"></path>
            <path d="M17.2443359,18.2283691 C17.0040527,18.2283691 16.7736816,18.0913086 16.6656738,17.8582031 C16.5187012,17.5389648 16.6581543,17.1599121 16.976709,17.0122559 L24.6979004,13.447998 C25.0191895,13.3003418 25.3961914,13.4397949 25.5441895,13.7597168 C25.6911621,14.0789551 25.551709,14.4580078 25.2331543,14.6056641 L17.5119629,18.1699219 C17.4279725,18.2083559 17.3367024,18.2282885 17.2443359,18.2283691 L17.2443359,18.2283691 Z" id="路径" fill="#FFFFFF"></path>
            <path d="M17.3362793,18.339112 C17.1496582,18.339112 16.9654297,18.2574219 16.8396484,18.1001953 L9.59526367,9.06411133 C9.37480469,8.78964844 9.41923828,8.3887207 9.69438477,8.16860352 C9.96816406,7.94951172 10.3708008,7.99360352 10.5898926,8.26772461 L17.8329102,17.3038086 C18.0533691,17.5782715 18.0096191,17.9791992 17.7344727,18.1993164 C17.6215812,18.2899855 17.4810734,18.339314 17.3362793,18.339112 L17.3362793,18.339112 Z" id="路径" fill="#FFFFFF"></path>
        </g>
    </g>
</svg>