<?xml version="1.0" encoding="UTF-8"?>
<svg width="58px"
    height="58px"
    viewBox="0 0 58 58"
    version="1.1"
    xmlns="http://www.w3.org/2000/svg">
    <title>图标/首页/转账</title>
    <g
        id="图标/首页/转账"
        stroke="none"
        stroke-width="1"
        fill="none"
        fill-rule="evenodd">
        <rect
            id="矩形"
            fill="#A1A1A1"
            opacity="0"
            x="0"
            y="0"
            width="58"
            height="58"></rect>
        <rect
            id="矩形"
            fill="#FFFFFF"
            opacity="0.160019985"
            x="0"
            y="0"
            width="58"
            height="58"
            rx="10"></rect>
        <g
            id="编组"
            transform="translate(15.000000, 11.000000)"
            fill="#FFFFFF">
            <path
                d="M17.6825915,0.374366143 L25.9558714,7.31647233 L26.0622476,7.41483829 C26.6120995,7.63729575 27,8.17630135 27,8.80590597 L27,9.00590597 C27,9.59886486 26.6559404,10.1114643 26.1565684,10.3549571 C26.0968362,10.4262498 26.029871,10.4936154 25.9558714,10.5557084 L25.9558714,10.5557084 L17.6825915,17.4978145 C17.005672,18.0658174 15.996463,17.9775231 15.4284602,17.3006036 C14.8604573,16.6236842 14.9487516,15.6144752 15.6256711,15.0464723 L15.6256711,15.0464723 L21.037,10.505 L1.5,10.505906 C0.671572875,10.505906 -1.20591542e-16,9.83433309 0,9.00590597 L0,8.80590597 C-3.23497668e-16,7.97747884 0.671572875,7.30590597 1.5,7.30590597 L20.964,7.305 L15.6256711,2.82570836 C14.9487516,2.25770549 14.8604573,1.24849654 15.4284602,0.571577077 C15.996463,-0.105342385 17.005672,-0.193636728 17.6825915,0.374366143 Z"
                id="形状结合"></path>
            <path
                d="M17.6825915,18.2402721 L25.9558714,25.1823783 L26.0622476,25.2807443 C26.6120995,25.5032017 27,26.0422073 27,26.6718119 L27,26.8718119 C27,27.4647708 26.6559404,27.9773703 26.1565684,28.220863 C26.0968362,28.2921558 26.029871,28.3595214 25.9558714,28.4216143 L25.9558714,28.4216143 L17.6825915,35.3637205 C17.005672,35.9317234 15.996463,35.843429 15.4284602,35.1665096 C14.8604573,34.4895901 14.9487516,33.4803812 15.6256711,32.9123783 L15.6256711,32.9123783 L21.037,28.370906 L1.5,28.3718119 C0.671572875,28.3718119 -1.20591542e-16,27.7002391 0,26.8718119 L0,26.6718119 C-3.23497668e-16,25.8433848 0.671572875,25.1718119 1.5,25.1718119 L20.964,25.170906 L15.6256711,20.6916143 C14.9487516,20.1236115 14.8604573,19.1144025 15.4284602,18.437483 C15.996463,17.7605636 17.005672,17.6722692 17.6825915,18.2402721 Z"
                id="形状结合"
                transform="translate(13.500000, 26.801996) scale(-1, 1) translate(-13.500000, -26.801996) "></path>
        </g>
    </g>
</svg>