<?xml version="1.0" encoding="UTF-8"?>
<svg width="24px" height="24px" viewBox="0 0 24 24" version="1.1" xmlns="http://www.w3.org/2000/svg" xmlns:xlink="http://www.w3.org/1999/xlink">
    <title>图标/联系人</title>
    <g id="图标/联系人" stroke="none" stroke-width="1" fill="none" fill-rule="evenodd">
        <rect id="矩形" fill="#D8D8D8" opacity="0" x="0" y="0" width="24" height="24"></rect>
        <g id="联系人" transform="translate(2.000000, 2.000000)" fill-rule="nonzero">
            <rect id="矩形" fill="#000000" opacity="0" x="0" y="0" width="20" height="20"></rect>
            <path d="M14.6230469,1.24804688 L5.3515625,1.24804688 C3.90039062,1.24804688 2.71875,2.42773438 2.71875,3.87695312 L2.71875,16.1132812 C2.71875,17.5625 3.90039062,18.7421875 5.3515625,18.7421875 L14.6230469,18.7421875 C16.0742188,18.7421875 17.2558594,17.5625 17.2558594,16.1132812 L17.2558594,3.87695312 C17.2558594,2.42773438 16.0742188,1.24804688 14.6230469,1.24804688 Z M16.203125,4.7421875 L16.203125,16.109375 C16.203125,16.9785156 15.4941406,17.6875 14.6230469,17.6875 L5.3515625,17.6875 C4.48046875,17.6875 3.77148438,16.9804687 3.77148438,16.109375 L3.77148438,14.7226562 L4.640625,14.7226562 L4.640625,13.671875 L3.77148438,13.671875 L3.77148438,12.6210937 L4.640625,12.6210937 L4.640625,11.5703125 L3.77148438,11.5703125 L3.77148438,10.5195312 L4.640625,10.5195312 L4.640625,9.46875 L3.77148438,9.46875 L3.77148438,8.41796875 L4.640625,8.41796875 L4.640625,7.36328125 L3.77148438,7.36328125 L3.77148438,6.3125 L4.640625,6.3125 L4.640625,5.26171875 L3.77148438,5.26171875 L3.77148438,3.87695312 C3.77148438,3.0078125 4.48046875,2.29882812 5.3515625,2.29882812 L9.30859375,2.29882812 C9.30859375,2.3046875 9.31054688,2.29296875 9.31054688,2.29882812 C9.31054688,2.31835937 9.31445312,2.27929687 9.31640625,2.29882812 C9.31835938,2.31445312 9.3203125,2.28320312 9.32421875,2.29882812 C9.328125,2.31640625 9.33398438,2.28320312 9.33984375,2.29882812 C9.34570312,2.31445312 9.3515625,2.28320312 9.359375,2.29882812 C9.36523438,2.3125 9.375,2.28515625 9.3828125,2.29882812 C9.39257812,2.31445312 9.40234375,2.28320312 9.4140625,2.29882812 C9.41796875,2.3046875 9.41992188,2.29296875 9.42382812,2.29882812 C9.4296875,2.3046875 9.43554688,2.29296875 9.44140625,2.29882812 C9.45703125,2.31640625 9.47460938,2.28320312 9.49414062,2.29882812 C9.50585938,2.30859375 9.515625,2.29101562 9.52734375,2.29882812 C9.546875,2.3125 9.56640625,2.28710937 9.58789062,2.29882812 C9.59960938,2.3046875 9.61132812,2.29296875 9.62304688,2.29882812 C9.6484375,2.31054687 9.67382812,2.29101562 9.70117188,2.29882812 C9.7109375,2.30078125 9.71875,2.296875 9.72851562,2.29882812 C9.76367188,2.30664062 9.80078125,2.29882812 9.83984375,2.29882812 C9.87304687,2.29882812 9.90429688,2.3046875 9.9375,2.29882812 C9.94921875,2.296875 9.95898438,2.30078125 9.96875,2.29882812 C9.98828125,2.29296875 10.0097656,2.30664062 10.0292969,2.29882812 C10.0410156,2.29492187 10.0527344,2.3046875 10.0644531,2.29882812 C10.0820312,2.29101562 10.0976562,2.30859375 10.1152344,2.29882812 C10.1269531,2.29101562 10.1386719,2.30664062 10.1503906,2.29882812 C10.15625,2.29492187 10.1621094,2.30273437 10.1699219,2.29882812 L13.4921875,2.29882812 C13.5,2.30664062 13.5097656,2.29101562 13.5195312,2.29882812 C13.53125,2.30859375 13.5429688,2.29101562 13.5566406,2.29882812 C13.5722656,2.30859375 13.5898437,2.29101562 13.6054687,2.29882812 C13.6171875,2.3046875 13.6308594,2.29296875 13.6425781,2.29882812 C13.6621094,2.30664062 13.6816406,2.29296875 13.703125,2.29882812 C13.7148437,2.30273437 13.7246094,2.296875 13.7363281,2.29882812 C13.7695312,2.3046875 13.8027344,2.29882812 13.8359375,2.29882812 C13.8730469,2.29882812 13.9101562,2.30664062 13.9433594,2.29882812 C13.9492187,2.296875 13.9570313,2.30078125 13.9628906,2.29882812 C13.9921875,2.29101562 14.0195312,2.31054687 14.0449219,2.29882812 C14.0566406,2.29492187 14.0664062,2.3046875 14.0761719,2.29882812 C14.0976563,2.28710937 14.1171875,2.3125 14.1367188,2.29882812 C14.1484375,2.29101562 14.1582031,2.30859375 14.1679688,2.29882812 C14.1855469,2.28320312 14.203125,2.31640625 14.21875,2.29882812 C14.2226563,2.29492187 14.2265625,2.30273437 14.2304688,2.29882812 C14.2363281,2.29101562 14.2421875,2.30664062 14.2480469,2.29882812 C14.2597656,2.28320312 14.2695313,2.31445312 14.2792969,2.29882812 C14.2871094,2.28515625 14.2949219,2.31445312 14.3027344,2.29882812 C14.3105469,2.28320312 14.3183594,2.31445312 14.3242188,2.29882812 C14.3300781,2.28320312 14.3359375,2.31640625 14.3398438,2.29882812 C14.34375,2.28320312 14.3476563,2.31445312 14.3496094,2.29882812 C14.3535156,2.28125 14.3535156,2.31835937 14.3554688,2.29882812 C14.3554688,2.2890625 14.359375,2.30859375 14.359375,2.29882812 L14.6289062,2.29882812 C15.5,2.29882812 16.2089844,3.00585937 16.2089844,3.87695312 L16.2089844,4.7421875 L16.203125,4.7421875 Z" id="形状" fill="#9598AA"></path>
            <path d="M12.2050781,10.5996094 C12.9160156,10.0527344 13.3769531,9.19726562 13.3769531,8.234375 C13.3769531,6.58789062 12.0351562,5.24804688 10.3867188,5.24804688 C8.73828125,5.24804688 7.39648437,6.58789062 7.39648437,8.234375 C7.39648437,9.19726562 7.85742187,10.0546875 8.56835937,10.5996094 C7.24609375,11.265625 6.3359375,12.6347656 6.3359375,14.2109375 L6.3359375,14.7363281 L14.4336063,14.7363281 L14.4336063,14.2109375 C14.4375,12.6347656 13.5273438,11.265625 12.2050781,10.5996094 Z M8.453125,8.234375 C8.453125,7.16796875 9.32226562,6.30078125 10.3886719,6.30078125 C11.4550781,6.30078125 12.3242187,7.16796875 12.3242187,8.234375 C12.3242187,9.30078125 11.4550781,10.1679688 10.3886719,10.1679688 C9.32226562,10.1679688 8.453125,9.30078125 8.453125,8.234375 L8.453125,8.234375 Z M7.43945312,13.6855469 C7.68945312,12.2851562 8.91601562,11.21875 10.3886719,11.21875 C11.8613281,11.21875 13.0878906,12.2851563 13.3378906,13.6855469 L7.43945312,13.6855469 Z" id="形状" fill="#9598AA"></path>
        </g>
    </g>
</svg>