<?xml version="1.0" encoding="UTF-8"?>
<svg width="16px"
    height="16px"
    viewBox="0 0 16 16"
    version="1.1"
    xmlns="http://www.w3.org/2000/svg">
    <title>图标/更多2</title>
    <g
        id="图标/更多2"
        stroke="none"
        stroke-width="1"
        fill="none"
        fill-rule="evenodd">
        <g
            id="更多"
            fill-rule="nonzero">
            <rect
                id="矩形"
                fill="#000000"
                opacity="0"
                x="0"
                y="0"
                width="16"
                height="16"></rect>
            <path
                d="M11.666594,8 C11.666594,8.80993086 12.3235406,9.46665361 13.1332477,9.46665361 C13.9434343,9.46665361 14.5999013,8.80994686 14.5999013,8 C14.5999013,7.19005314 13.9434343,6.53334639 13.1332477,6.53334639 C12.3235406,6.53334639 11.666594,7.19005314 11.666594,8 Z M1.40006675,8 C1.40006675,8.80993086 2.05699734,9.46665361 2.86670437,9.46665361 C3.67642737,9.46665361 4.33335798,8.80994686 4.33335798,8 C4.33335798,7.19005314 3.67642739,6.53334639 2.86670437,6.53334639 C2.05701334,6.53334639 1.40006675,7.19005314 1.40006675,8 Z M6.53332241,8 C6.53332241,8.80993086 7.18978933,9.46665361 7.999992,9.46665361 C8.80969902,9.46665361 9.46662962,8.80994686 9.46662962,8 C9.46662962,7.19005314 8.80969903,6.53334639 7.999992,6.53334639 C7.18978933,6.53334639 6.53332241,7.19005314 6.53332241,8 Z"
                id="形状"
                fill="#FFFFFF"></path>
        </g>
    </g>
</svg>