<?xml version="1.0" encoding="UTF-8"?>
<svg width="35px" height="35px" viewBox="0 0 35 35" version="1.1" xmlns="http://www.w3.org/2000/svg" xmlns:xlink="http://www.w3.org/1999/xlink">
    <title>代币/UNI</title>
    <defs>
        <linearGradient x1="50%" y1="-31.6233191%" x2="50%" y2="111.545664%" id="linearGradient-1">
            <stop stop-color="#FACDFE" offset="0%"></stop>
            <stop stop-color="#FFFFFF" offset="100%"></stop>
        </linearGradient>
    </defs>
    <g id="代币/UNI" stroke="none" stroke-width="1" fill="none" fill-rule="evenodd">
        <rect id="矩形" fill="#D8D8D8" opacity="0" x="0" y="0" width="35" height="35"></rect>
        <circle id="椭圆形" fill="url(#linearGradient-1)" cx="17.5" cy="17.5" r="17.5"></circle>
        <g id="uniswap-uni-logo" transform="translate(7.000000, 6.000000)" fill="#FF007A">
            <path d="M8.16494845,5.4556701 C7.90515464,5.4185567 7.89278351,5.40618557 8.01649485,5.39381443 C8.25154639,5.35670103 8.79587629,5.40618557 9.17938144,5.49278351 C10.0701031,5.70309278 10.8742268,6.24742268 11.7278351,7.2 L11.9505155,7.45979381 L12.2721649,7.41030928 C13.6453608,7.18762887 15.0556701,7.36082474 16.2309278,7.90515464 C16.5525773,8.05360825 17.0597938,8.35051546 17.1216495,8.42474227 C17.1463918,8.44948454 17.1835052,8.61030928 17.2082474,8.77113402 C17.2948454,9.35257732 17.257732,9.78556701 17.0721649,10.1195876 C16.9731959,10.3051546 16.9731959,10.3546392 17.0350515,10.5154639 C17.0845361,10.6391753 17.2329897,10.7257732 17.3690722,10.7257732 C17.6659794,10.7257732 17.9752577,10.2556701 18.1237113,9.6 L18.185567,9.34020619 L18.2969072,9.46391753 C18.9278351,10.1690722 19.4226804,11.1463918 19.4969072,11.8391753 L19.5216495,12.0247423 L19.4103093,11.8639175 C19.2247423,11.5793814 19.0515464,11.3938144 18.8164948,11.2329897 C18.3958763,10.9484536 17.9505155,10.8618557 16.7752577,10.8 C15.7113402,10.7381443 15.1051546,10.6515464 14.5113402,10.4536082 C13.4969072,10.1195876 12.9773196,9.68659794 11.7773196,8.09072165 C11.2453608,7.38556701 10.9113402,7.00206186 10.5773196,6.68041237 C9.84742268,5.97525773 9.11752577,5.60412371 8.16494845,5.4556701 Z" id="路径" fill-rule="nonzero"></path>
            <path d="M17.3814433,7.02680412 C17.4061856,6.55670103 17.4680412,6.24742268 17.6041237,5.9628866 C17.6536082,5.85154639 17.7030928,5.75257732 17.7154639,5.75257732 C17.7278351,5.75257732 17.7030928,5.83917526 17.6659794,5.93814433 C17.5670103,6.21030928 17.5546392,6.59381443 17.6164948,7.02680412 C17.7030928,7.58350515 17.7402062,7.65773196 18.3340206,8.26391753 C18.6061856,8.54845361 18.9278351,8.90721649 19.0515464,9.0556701 L19.2618557,9.32783505 L19.0515464,9.12989691 C18.7917526,8.88247423 18.1979381,8.41237113 18.0618557,8.35051546 C17.9752577,8.30103093 17.9628866,8.30103093 17.9010309,8.3628866 C17.8515464,8.41237113 17.8391753,8.48659794 17.8391753,8.84536082 C17.8268041,9.40206186 17.7525773,9.74845361 17.5670103,10.1072165 C17.4680412,10.2927835 17.4556701,10.2556701 17.542268,10.0453608 C17.6041237,9.88453608 17.6164948,9.81030928 17.6164948,9.27835052 C17.6164948,8.20206186 17.4927835,7.94226804 16.7381443,7.50927835 C16.5525773,7.39793814 16.2309278,7.2371134 16.0453608,7.15051546 C15.8474227,7.06391753 15.6989691,6.98969072 15.7113402,6.98969072 C15.7360825,6.96494845 16.4659794,7.17525773 16.7505155,7.29896907 C17.1835052,7.47216495 17.257732,7.48453608 17.3072165,7.47216495 C17.3443299,7.43505155 17.3690722,7.33608247 17.3814433,7.02680412 Z" id="路径" fill-rule="nonzero"></path>
            <path d="M8.67216495,8.87010309 C8.15257732,8.15257732 7.8185567,7.03917526 7.89278351,6.21030928 L7.91752577,5.95051546 L8.04123711,5.97525773 C8.26391753,6.01237113 8.64742268,6.16082474 8.83298969,6.27216495 C9.32783505,6.56907216 9.55051546,6.97731959 9.76082474,7.99175258 C9.82268041,8.28865979 9.90927835,8.63505155 9.94639175,8.74639175 C10.0082474,8.93195876 10.243299,9.36494845 10.4412371,9.6371134 C10.5773196,9.83505155 10.4907216,9.93402062 10.1814433,9.90927835 C9.71134021,9.85979381 9.08041237,9.42680412 8.67216495,8.87010309 Z" id="路径" fill-rule="nonzero"></path>
            <path d="M16.7505155,14.2515464 C14.3010309,13.2618557 13.4350515,12.4082474 13.4350515,10.9608247 C13.4350515,10.7505155 13.4474227,10.5773196 13.4474227,10.5773196 C13.4597938,10.5773196 13.5463918,10.6515464 13.657732,10.7381443 C14.1525773,11.1340206 14.7092784,11.3072165 16.2556701,11.5298969 C17.1587629,11.6659794 17.6783505,11.7649485 18.1484536,11.9257732 C19.6453608,12.4206186 20.5731959,13.4350515 20.7958763,14.8082474 C20.857732,15.2041237 20.8206186,15.9587629 20.7216495,16.3546392 C20.6350515,16.6639175 20.3876289,17.2329897 20.3257732,17.2453608 C20.3134021,17.2453608 20.2886598,17.1835052 20.2886598,17.0845361 C20.2639175,16.5649485 20.0041237,16.0701031 19.571134,15.6865979 C19.0515464,15.2412371 18.3835052,14.9072165 16.7505155,14.2515464 Z" id="路径" fill-rule="nonzero"></path>
            <path d="M15.0185567,14.6597938 C14.9938144,14.4742268 14.9319588,14.2391753 14.8948454,14.1402062 L14.8329897,13.9546392 L14.9443299,14.0907216 C15.1051546,14.2762887 15.228866,14.4989691 15.3402062,14.8082474 C15.4268041,15.043299 15.4268041,15.1175258 15.4268041,15.5010309 C15.4268041,15.8721649 15.414433,15.9587629 15.3402062,16.1690722 C15.2164948,16.5030928 15.0680412,16.7381443 14.8206186,16.9979381 C14.3752577,17.4556701 13.7938144,17.7030928 12.9649485,17.814433 C12.8164948,17.8268041 12.3958763,17.8639175 12.0247423,17.8886598 C11.0969072,17.9381443 10.4783505,18.0371134 9.92164948,18.2350515 C9.84742268,18.2597938 9.77319588,18.2845361 9.76082474,18.2721649 C9.73608247,18.2474227 10.1195876,18.0247423 10.428866,17.8762887 C10.8618557,17.6659794 11.3072165,17.5546392 12.2845361,17.3814433 C12.7670103,17.3072165 13.2618557,17.2082474 13.385567,17.1587629 C14.6103093,16.7752577 15.2164948,15.8226804 15.0185567,14.6597938 Z" id="路径" fill-rule="nonzero"></path>
            <path d="M16.1443299,16.6515464 C15.8226804,15.9463918 15.7484536,15.2783505 15.9216495,14.6474227 C15.9463918,14.585567 15.971134,14.5237113 15.9958763,14.5237113 C16.0206186,14.5237113 16.0948454,14.5608247 16.1690722,14.6103093 C16.3175258,14.7092784 16.6268041,14.8824742 17.4185567,15.3154639 C18.4206186,15.8597938 18.9896907,16.2804124 19.385567,16.7628866 C19.7319588,17.1835052 19.942268,17.6659794 20.0412371,18.2597938 C20.1030928,18.5938144 20.0659794,19.3979381 19.9793814,19.7319588 C19.7072165,20.7835052 19.0886598,21.6247423 18.185567,22.1072165 C18.0494845,22.1814433 17.9381443,22.2309278 17.9257732,22.2309278 C17.9134021,22.2309278 17.9628866,22.1072165 18.0371134,21.9587629 C18.3340206,21.3278351 18.371134,20.7216495 18.1484536,20.0412371 C18.0123711,19.6206186 17.7278351,19.1134021 17.1587629,18.2597938 C16.4783505,17.2701031 16.3175258,17.0103093 16.1443299,16.6515464 Z" id="路径" fill-rule="nonzero"></path>
            <path d="M6.92783505,20.4371134 C7.84329897,19.6701031 8.96907216,19.1257732 10.0082474,18.9525773 C10.4536082,18.8783505 11.1958763,18.9030928 11.6041237,19.014433 C12.2597938,19.1876289 12.8536082,19.5587629 13.1628866,20.0164948 C13.4597938,20.4618557 13.5958763,20.8453608 13.7319588,21.6989691 C13.7814433,22.0329897 13.843299,22.3793814 13.8556701,22.4536082 C13.9546392,22.8989691 14.1525773,23.2453608 14.4,23.4309278 C14.7835052,23.7154639 15.4515464,23.7278351 16.1072165,23.4804124 C16.2185567,23.443299 16.3175258,23.4061856 16.3175258,23.4185567 C16.342268,23.443299 16.0082474,23.6659794 15.785567,23.7773196 C15.4762887,23.9381443 15.228866,23.9876289 14.8948454,23.9876289 C14.3010309,23.9876289 13.7938144,23.6783505 13.385567,23.0597938 C13.2989691,22.9360825 13.1257732,22.5773196 12.9773196,22.243299 C12.5443299,21.2412371 12.3216495,20.9443299 11.814433,20.6103093 C11.3690722,20.3257732 10.8,20.2639175 10.3670103,20.4742268 C9.79793814,20.7463918 9.64948454,21.4762887 10.0453608,21.9216495 C10.2061856,22.1072165 10.5030928,22.2556701 10.7505155,22.2927835 C11.2082474,22.3546392 11.6041237,21.9958763 11.6041237,21.5381443 C11.6041237,21.2412371 11.4927835,21.0680412 11.1958763,20.9319588 C10.8,20.7587629 10.3670103,20.956701 10.3793814,21.3402062 C10.3793814,21.5010309 10.4536082,21.6 10.614433,21.6742268 C10.7134021,21.7237113 10.7134021,21.7237113 10.6391753,21.7113402 C10.2804124,21.6371134 10.1938144,21.1917526 10.4783505,20.9072165 C10.8247423,20.5608247 11.5546392,20.7092784 11.8020619,21.1917526 C11.9010309,21.3896907 11.9134021,21.785567 11.8268041,22.0329897 C11.6164948,22.5773196 11.0226804,22.8618557 10.4164948,22.7010309 C10.0082474,22.5896907 9.83505155,22.4783505 9.34020619,21.971134 C8.4742268,21.0804124 8.14020619,20.9072165 6.90309278,20.7216495 L6.66804124,20.6845361 L6.92783505,20.4371134 Z" id="路径" fill-rule="nonzero"></path>
            <path d="M0.420618557,0.531958763 C3.30309278,4.03298969 7.7443299,9.47628866 7.96701031,9.77319588 C8.15257732,10.0206186 8.07835052,10.2556701 7.76907216,10.428866 C7.59587629,10.5278351 7.2371134,10.6268041 7.06391753,10.6268041 C6.86597938,10.6268041 6.63092784,10.5278351 6.47010309,10.3670103 C6.35876289,10.2556701 5.87628866,9.55051546 4.78762887,7.8556701 C3.95876289,6.55670103 3.25360825,5.48041237 3.24123711,5.46804124 C3.19175258,5.44329897 3.19175258,5.44329897 4.70103093,8.14020619 C5.65360825,9.83505155 5.9628866,10.4412371 5.9628866,10.5154639 C5.9628866,10.6762887 5.91340206,10.7628866 5.71546392,10.985567 C5.3814433,11.356701 5.23298969,11.7773196 5.12164948,12.6556701 C4.99793814,13.6329897 4.66391753,14.3257732 3.71134021,15.5010309 C3.15463918,16.1938144 3.06804124,16.3175258 2.93195876,16.6020619 C2.75876289,16.9484536 2.70927835,17.1463918 2.68453608,17.5917526 C2.65979381,18.0618557 2.70927835,18.3587629 2.84536082,18.8041237 C2.96907216,19.2 3.10515464,19.4597938 3.43917526,19.9670103 C3.72371134,20.4123711 3.89690722,20.7463918 3.89690722,20.8701031 C3.89690722,20.9690722 3.92164948,20.9690722 4.36701031,20.8701031 C5.43092784,20.6226804 6.30927835,20.2020619 6.79175258,19.6824742 C7.08865979,19.3608247 7.1628866,19.1876289 7.1628866,18.742268 C7.1628866,18.457732 7.15051546,18.3958763 7.07628866,18.2226804 C6.95257732,17.9505155 6.71752577,17.7278351 6.21030928,17.3814433 C5.54226804,16.9237113 5.25773196,16.5525773 5.18350515,16.057732 C5.12164948,15.6371134 5.19587629,15.3525773 5.56701031,14.5731959 C5.95051546,13.7690722 6.04948454,13.4350515 6.11134021,12.6185567 C6.14845361,12.0989691 6.21030928,11.8886598 6.35876289,11.7278351 C6.51958763,11.5546392 6.6556701,11.4927835 7.03917526,11.443299 C7.67010309,11.356701 8.07835052,11.1958763 8.4,10.8865979 C8.68453608,10.6268041 8.80824742,10.3670103 8.82061856,9.98350515 L8.83298969,9.69896907 L8.67216495,9.5257732 C8.09072165,8.85773196 0.0371134021,0 -2.43728648e-16,0 C-0.012371134,0 0.18556701,0.235051546 0.420618557,0.531958763 Z M4.2185567,18.1237113 C4.35463918,17.8886598 4.28041237,17.5917526 4.05773196,17.443299 C3.84742268,17.3072165 3.5257732,17.3690722 3.5257732,17.5546392 C3.5257732,17.6041237 3.55051546,17.6536082 3.62474227,17.6783505 C3.73608247,17.7402062 3.74845361,17.8020619 3.66185567,17.9381443 C3.57525773,18.0742268 3.57525773,18.1979381 3.68659794,18.2845361 C3.85979381,18.4206186 4.09484536,18.3463918 4.2185567,18.1237113 Z" id="形状"></path>
            <path d="M9.22886598,11.6164948 C8.93195876,11.7030928 8.64742268,12.0247423 8.56082474,12.3463918 C8.51134021,12.5443299 8.53608247,12.9030928 8.62268041,13.014433 C8.75876289,13.1876289 8.88247423,13.2371134 9.22886598,13.2371134 C9.90927835,13.2371134 10.4907216,12.9402062 10.5525773,12.5814433 C10.614433,12.2845361 10.3546392,11.8762887 9.99587629,11.6907216 C9.81030928,11.5917526 9.42680412,11.5546392 9.22886598,11.6164948 Z M10.0206186,12.2350515 C10.1195876,12.0865979 10.0824742,11.9257732 9.89690722,11.814433 C9.5628866,11.6041237 9.0556701,11.7773196 9.0556701,12.0989691 C9.0556701,12.2597938 9.31546392,12.4329897 9.5628866,12.4329897 C9.72371134,12.4329897 9.94639175,12.3340206 10.0206186,12.2350515 Z" id="形状"></path>
        </g>
    </g>
</svg>