<?xml version="1.0" encoding="UTF-8"?>
<svg width="16px"
    height="16px"
    viewBox="0 0 16 16"
    version="1.1"
    xmlns="http://www.w3.org/2000/svg">
    <title>收款/储存二维码</title>
    <g
        id="收款/储存二维码"
        stroke="none"
        stroke-width="1"
        fill="none"
        fill-rule="evenodd">
        <g
            id="fenxiang"
            fill="#8F95AA"
            fill-rule="nonzero">
            <path
                d="M1.99791296,5 C0.894496,5 0,5.9001762 0,7.00477893 L0,13.9952208 C0,15.10243 0.894514032,16 2.00212912,16 L13.9978714,16 C15.1036166,16 16,15.1081156 16,13.9957421 L16,12.923784 L16,7.00035462 C16,5.8955892 15.1017398,5 14.0020864,5 L10,5 L10,6 L14.0001926,6 C14.5523712,6 15,6.44631135 15,6.99754467 L15,14.0024553 C15,14.5533838 14.5500512,15 14.0043782,15 L1.99562208,15 C1.44575504,15 1,14.5536888 1,14.0024553 L1,6.99754467 C1,6.44661594 1.44371648,6 1.99980752,6 L6,6 L6,5 L1.99791296,5 L1.99791296,5 L1.99791296,5 Z M8.49999984,9.31820626 C8.49999984,9.59439372 8.27806747,9.818288 8.00000025,9.818288 C7.72385749,9.818288 7.50000012,9.59647324 7.50000012,9.31820626 L7.50000012,1.52539455 L5.44201194,3.58338254 C5.24527401,3.7801207 4.92885648,3.78267837 4.73223297,3.58605468 C4.53697097,3.39079259 4.53428347,3.07569987 4.73250048,2.87595643 L7.2931765,0.295567582 C7.68354397,-0.0978056025 8.31503354,-0.0992388074 8.70682367,0.295567582 L11.2674996,2.87595643 C11.4629097,3.07287083 11.4643904,3.38943139 11.267767,3.58605468 C11.0725051,3.78131686 10.7558107,3.78120474 10.5579882,3.58338254 L8.49999984,1.52539455 L8.49999984,9.31820626 L8.49999984,9.31820626 L8.49999984,9.31820626 Z"
                id="形状"></path>
        </g>
    </g>
</svg>