<?xml version="1.0" encoding="UTF-8"?>
<svg width="24px"
    height="24px"
    viewBox="0 0 24 24"
    version="1.1"
    xmlns="http://www.w3.org/2000/svg">
    <title>首页/刷新</title>
    <g
        id="首页/刷新"
        stroke="none"
        stroke-width="1"
        fill="none"
        fill-rule="evenodd">
        <g
            id="刷新"
            transform="translate(4.000000, 4.000000)"
            fill-rule="nonzero">
            <rect
                id="矩形"
                fill="#000000"
                opacity="0"
                x="0"
                y="0"
                width="16"
                height="16"></rect>
            <path
                d="M13.8105469,10.7000937 C14.4604219,9.29179687 14.5544062,7.760875 14.1810938,6.37076562 C13.7519062,4.76635937 12.6957344,3.33579688 11.1642187,2.466625 L11.8435937,0.998484375 L7.9809375,2.01128125 L9.7085,5.61165625 L10.4192969,4.07559375 C11.4600156,4.71109375 12.1724844,5.70678125 12.4739531,6.827875 C12.7435937,7.83785937 12.6774531,8.93609375 12.2060625,9.96090625 C11.6053594,11.2632812 10.4824844,12.1500469 9.19664062,12.4959844 C9.01054079,12.5457075 8.82152353,12.5837865 8.6306875,12.61 L9.42807812,14.2582812 C9.50390625,14.2406406 9.57909375,14.2229219 9.6538125,14.2024687 C11.4241562,13.7305469 12.9841719,12.4954531 13.8105469,10.7000938 L13.8105469,10.7000937 Z M5.61217187,11.9887813 C4.556,11.3544375 3.83270312,10.3501875 3.5283125,9.21889063 C3.25875,8.20889063 3.32542187,7.11003125 3.79620312,6.08639062 C4.3969375,4.78348438 5.51979687,3.8966875 6.80565625,3.55076562 C7.018875,3.49371875 7.23598437,3.45271875 7.45545312,3.4264375 L6.66035937,1.76960937 C6.55604687,1.79189062 6.45171875,1.81579687 6.34853125,1.84373437 C4.57875,2.31673437 3.01820312,3.5518125 2.1911875,5.3471875 C1.54257813,6.75495313 1.44848438,8.28640625 1.82182812,9.67590625 L1.82296875,9.68048438 C2.2555625,11.2957188 3.32426562,12.7337031 4.87290625,13.6005781 L4.23054687,15.0015312 L8.08921875,13.9750625 L6.34970312,10.3809688 L5.61217187,11.9887813 Z"
                id="形状"
                fill="#FFFFFF"></path>
        </g>
        <rect
            id="矩形"
            fill="#D8D8D8"
            opacity="0"
            x="0"
            y="0"
            width="24"
            height="24"></rect>
    </g>
</svg>