<?xml version="1.0" encoding="UTF-8"?>
<svg width="24px"
    height="24px"
    viewBox="0 0 24 24"
    version="1.1"
    xmlns="http://www.w3.org/2000/svg"
    xmlns:xlink="http://www.w3.org/1999/xlink">
    <title>首页/通知 白色</title>
    <defs>
        <polygon
            id="path-1"
            points="0.73 0.000999999975 15.07 0.000999999975 15.07 13.3389745 0.73 13.3389745"></polygon>
    </defs>
    <g
        id="首页/通知-白色"
        stroke="none"
        stroke-width="1"
        fill="none"
        fill-rule="evenodd">
        <rect
            id="矩形"
            fill="#D8D8D8"
            opacity="0"
            x="0"
            y="0"
            width="24"
            height="24"></rect>
        <g
            id="tongzhi"
            transform="translate(2.000000, 2.000000)">
            <rect
                id="矩形"
                fill="#000000"
                fill-rule="nonzero"
                opacity="0"
                x="0"
                y="0"
                width="20"
                height="20"></rect>
            <g transform="translate(2.000000, 1.000000)">
                <g
                    id="编组"
                    transform="translate(0.000000, 1.550000)">
                    <mask
                        id="mask-2"
                        fill="white">
                        <use xlink:href="#path-1"></use>
                    </mask>
                    <g id="Clip-2"></g>
                    <path
                        d="M14.1261746,13.3389745 L1.87009842,13.3389745 C1.5241234,13.3389745 1.20214843,13.167 1.00809842,12.8809743 C0.814148409,12.5929743 0.776173418,12.230975 0.90614842,11.9089996 L2.09012383,9.4790247 L2.09012383,5.78702468 C2.09012383,5.00899995 2.24412387,4.2530497 2.54814886,3.53897483 C2.84012393,2.85099997 3.25809888,2.23302494 3.79012389,1.70100008 C4.32217391,1.16894994 4.94012385,0.750999988 5.62812399,0.458999982 C6.34207384,0.154999987 7.09814879,0.000999999975 7.87617406,0.000999999975 L7.89012402,0.000999999975 C8.66814914,0.000999999975 9.42412387,0.154999987 10.1381746,0.458999982 C10.8261741,0.750999988 11.4441244,1.16894994 11.9761746,1.70100008 C12.508099,2.23302494 12.9261737,2.85099997 13.2181499,3.53897483 C13.5221743,4.2530497 13.676174,5.00899995 13.676174,5.78702468 L13.676174,9.43302469 L15.0261742,11.780975 C15.2141495,12.1070498 15.2120997,12.4950248 15.0241238,12.8209992 C14.8381742,13.1450243 14.5000994,13.3389745 14.1261746,13.3389745 Z M2.55000042,11.74 L13.3899738,11.74 L12.1509166,9.5912289 L12.1509166,5.8393062 C12.1509166,4.71217696 11.7078101,3.64909287 10.9025483,2.84564693 C10.097262,2.04220106 9.03177451,1.60000005 7.90209677,1.60000005 L7.88894296,1.60000005 C6.75926565,1.60000005 5.69377828,2.04220106 4.88849233,2.84564693 C4.08323,3.64909287 3.6400292,4.71217696 3.6400292,5.8393062 L3.6400292,9.54795209 L2.55000042,11.74 Z"
                        id="Fill-1"
                        fill="#FFFFFF"
                        mask="url(#mask-2)"></path>
                </g>
                <path
                    d="M6.39885998,3.01095 C6.1239634,3.01095 5.8815574,2.81700001 5.83261787,2.54297496 C5.81023605,2.41895015 5.8,2.292975 5.8,2.16894986 C5.8,0.979024967 6.78599662,0.009 8.00003828,0.009 C9.2141052,0.009 10.2,0.976974965 10.2,2.16894986 C10.2,2.292975 10.1877524,2.41895015 10.1673567,2.54297496 C10.1124588,2.847 9.81905064,3.05305025 9.5074114,3.00305007 L8.35035554,2.81895008 C8.11821102,2.78097499 7.8818908,2.78097499 7.64763278,2.81895008 L6.49057705,3.00305007 C6.46004708,3.009 6.42951715,3.01095 6.39885998,3.01095 Z M7.99806712,1.8529657 C8.1834092,1.8529657 8.370579,1.81749246 8.5537632,1.85296569 L9,1.93897497 C8.83584214,1.47063905 8.65437024,0.988493872 8,0.988493872 C7.34562976,0.988493872 7.16426316,1.47063905 7,1.93897497 L7.44634212,1.85296569 C7.63157892,1.81749246 7.81498818,1.8529657 7.99806712,1.8529657 Z M10.6,17.609 L5.4,17.609 C4.9581722,17.609 4.6,17.2508278 4.6,16.809 C4.6,16.3671722 4.9581722,16.009 5.4,16.009 L10.6,16.009 C11.0418278,16.009 11.4,16.3671722 11.4,16.809 C11.4,17.2508278 11.0418278,17.609 10.6,17.609 Z"
                    id="Fill-3"
                    fill="#FFFFFF"></path>
            </g>
        </g>
    </g>
</svg>