<?xml version="1.0" encoding="UTF-8"?>
<svg width="24px"
    height="24px"
    viewBox="0 0 24 24"
    version="1.1"
    xmlns="http://www.w3.org/2000/svg">
    <title>首页/扫一扫-白色</title>
    <g
        id="首页/扫一扫-白色"
        stroke="none"
        stroke-width="1"
        fill="none"
        fill-rule="evenodd">
        <rect
            id="矩形"
            fill="#D8D8D8"
            opacity="0.0159656613"
            x="0"
            y="0"
            width="24"
            height="24"></rect>
        <path
            d="M14.3821724,5.31902329 L18.1295761,5.31902329 C18.4711309,5.31902329 18.6740925,5.49973683 18.6740925,5.86363773 L18.6740925,9.0664272 C18.6740925,9.40807988 19.0379737,9.54414036 19.401796,9.54414036 C19.7656779,9.54414036 20.0156487,9.27192147 20.0156487,8.93036672 L20.0156487,5.81906335 C20.0156487,4.79683344 19.1988351,3.98 18.1765854,3.98 L14.4291818,3.98 C14.0876269,3.98 13.8153295,4.25229746 13.8153295,4.59387202 C13.8153295,4.93297238 14.0405978,5.31902329 14.3821724,5.31902329 Z M9.04322202,18.6800372 L5.8181062,18.6800372 C5.4765317,18.6800372 5.27357023,18.4993237 5.27357023,18.1355207 L5.27357023,15.2024175 C5.27357023,14.8608429 4.90968878,14.4523869 4.54588586,14.4523869 C4.18200437,14.4523869 3.95426182,14.724704 3.95426182,15.0662589 L3.95426182,18.1329875 C3.95426182,19.1552176 4.77109531,19.9720509 5.79332522,19.9720509 L8.86005395,19.9720509 C9.20162884,19.9720509 9.47392621,19.6997534 9.47392621,19.3581787 C9.52093536,19.0661664 9.3847969,18.6800372 9.04322202,18.6800372 Z M4.56813377,9.54667345 C4.90968873,9.54667345 5.29581807,9.13821768 5.29581807,8.79666274 L5.29581807,5.84376569 C5.29581807,5.50219127 5.47653151,5.29924945 5.84035414,5.29924945 L8.77092445,5.29924945 C9.11255761,5.29924945 9.52093507,4.93542687 9.52093507,4.57154545 C9.52093507,4.20774255 9.24863777,3.98 8.90708273,3.98 L5.79577962,3.98 C4.77354976,3.98 3.95677736,4.79683346 3.95677736,5.8190633 L3.95677736,8.88579203 C3.9542618,9.24959512 4.22655926,9.54667345 4.56813377,9.54667345 Z M19.3795484,14.4523869 C19.0379739,14.4523869 18.6518445,14.8608429 18.6518445,15.2024175 L18.6518445,18.1329877 C18.6518445,18.4745426 18.471131,18.677504 18.107328,18.677504 L14.3821724,18.677504 C14.0405978,18.677504 13.8153295,19.041405 13.8153295,19.4052081 C13.8153295,19.7690893 14.0876269,20.01908 14.4291818,20.01908 L18.1097827,20.01908 C19.1320122,20.01908 19.9488461,19.2022466 19.9488461,18.179997 L19.9488461,15.0662589 C19.993342,14.7494655 19.7211035,14.4523869 19.3795484,14.4523869 Z M20.1,11.3436364 L3.9,11.3436364 C3.40294373,11.3436364 3,11.7465801 3,12.2436364 C3,12.7406926 3.40294373,13.1436364 3.9,13.1436364 L20.1,13.1436364 C20.5970563,13.1436364 21,12.7406926 21,12.2436364 C21,11.7465801 20.5970563,11.3436364 20.1,11.3436364 Z"
            id="Fill-1"
            fill="#FFFFFF"></path>
    </g>
</svg>